<svg transform="scale(1)" version="1.1" id="Layer_1" xmlns="http://www.w3.org/2000/svg" xmlns:xlink="http://www.w3.org/1999/xlink" x="0px" y="0px" viewBox="0 0 500 500" xml:space="preserve" class="show_show__wrapper__graphic__5Waiy "><title>React</title><style type="text/css">
	.st0{fill:#709FF9;}
	.st1{fill:#FF912E;}
	.st2{fill:url(#SVGID_1_);}
	.st3{fill:#FFB92C;}
	.st4{fill:#FFD64C;}
	.st5{fill:url(#SVGID_00000152223369822911621890000008547105967339401375_);}
	.st6{fill:#68E1FD;}
	.st7{opacity:0.33;fill:#1590BA;enable-background:new    ;}
	.st8{fill:#F4F4F4;}
	.st9{fill:#1590BA;}
	.st10{fill:#BABABC;}
	.st11{fill:url(#SVGID_00000145758285383104603630000002937836425209014663_);}
	.st12{fill:url(#SVGID_00000152244998931171706600000004025680603617039513_);}
	.st13{fill:url(#SVGID_00000027573231132217026060000002678983562840963743_);}
	.st14{opacity:0.68;}
</style><path class="st0" id="field" d="M22.5,304.1l226.8,130.7c2,1.1,4.4,1.1,6.4,0l221.9-126c3.1-1.8,4.2-5.7,2.4-8.8
	c-0.6-1-1.4-1.8-2.4-2.4l-230.6-132c-2-1.2-4.4-1.2-6.4,0L22.4,293c-3.1,1.8-4.1,5.7-2.3,8.8C20.6,302.8,21.5,303.6,22.5,304.1z"></path><g id="coins2"><polygon class="st1" points="300,193.8 300,199.6 295.6,199.6 298.8,195 	"></polygon><linearGradient id="SVGID_1_" gradientUnits="userSpaceOnUse" x1="259.32" y1="-1714.8201" x2="208.5" y2="-1672.74" gradientTransform="matrix(1 0 0 1 0 1954.76)"><stop offset="0" style="stop-color: rgb(59, 207, 186);"></stop><stop offset="0.23" style="stop-color: rgb(59, 207, 186);"></stop><stop offset="1" style="stop-color: rgb(112, 159, 249);"></stop></linearGradient><path class="st2" d="M217.6,242.2l-40.4,24c0,0,16.6,18.7,47.4,31.7l55.4-33.3"></path><ellipse class="st1" cx="247.8" cy="253.2" rx="34.4" ry="20.2"></ellipse><polygon class="st1" points="213.4,253.2 213.4,247.4 217.1,252 	"></polygon><polygon class="st1" points="282.2,247.4 282.2,253.2 277.8,253.2 281,248.5 	"></polygon><ellipse class="st3" cx="247.9" cy="247.6" rx="34.4" ry="20.2"></ellipse><path class="st1" d="M265.2,244.7c0.2,0.5,0.3,1,0.3,1.5l-0.1,0.5h-6.3c0.1-0.2,0.1-0.4,0.1-0.5c0-0.4-0.2-0.8-0.4-1.1
		c-0.3-0.6-0.9-1.1-1.5-1.4c-0.9-0.5-1.9-0.7-2.9-0.8c-1-0.1-1.9,0.1-2.8,0.4c-0.9,0.4-1.2,0.9-1,1.4c0.3,0.8,0.7,1.4,1.3,2
		c0.7,0.7,1.3,1.4,1.9,2.2c0.6,0.7,0.7,1.6,0.3,2.4c-0.7,1.1-1.7,2-3,2.4c-2.1,0.9-4.4,1.4-6.7,1.4c-2.5,0.1-4.9-0.2-7.3-1l-3.6,1.6
		l-4.2-2.1l3.5-1.5c-0.6-0.4-1.2-0.9-1.7-1.5c-0.4-0.4-0.7-0.9-0.8-1.4c-0.1-0.4-0.2-0.8-0.2-1.1c0-0.3,0-0.5,0-0.8l0.1-0.3h6.3
		c-0.1,0.2-0.1,0.4-0.2,0.6c0,0.5,0.2,1,0.5,1.4c0.5,0.8,1.2,1.4,2.1,1.8c1.1,0.6,2.4,0.9,3.6,0.9c1.1,0.1,2.3-0.1,3.4-0.5
		c0.9-0.4,1.2-0.9,1-1.4c-0.3-0.8-0.8-1.4-1.4-2c-0.7-0.7-1.3-1.4-1.9-2.2c-0.6-0.7-0.7-1.6-0.3-2.4c0.7-1.2,1.9-2,3.2-2.4
		c2-0.8,4.2-1.2,6.4-1.3c2.3-0.1,4.6,0.3,6.8,1.1l3.6-1.6l3.9,2.1l-3.6,1.6C264.4,243.2,264.9,243.9,265.2,244.7z"></path><path class="st1" d="M247.9,265.5c-16.5,0-29.9-8-29.9-17.9s13.4-17.9,29.9-17.9s29.9,8,29.9,17.9S264.3,265.5,247.9,265.5z
		 M247.9,231.7c-15.4,0-27.9,7.1-27.9,15.9s12.5,15.9,27.9,15.9s27.9-7.1,27.9-15.9S263.2,231.7,247.9,231.7L247.9,231.7z"></path><ellipse class="st1" cx="247.8" cy="242.1" rx="34.4" ry="20.2"></ellipse><polygon class="st1" points="213.4,242.1 213.4,236.3 217.1,240.9 	"></polygon><polygon class="st1" points="282.2,236.3 282.2,242.1 277.8,242.1 281,237.4 	"></polygon><ellipse class="st3" cx="247.8" cy="236.3" rx="34.4" ry="20.2"></ellipse><path class="st1" d="M265.2,233.6c0.2,0.5,0.3,1,0.3,1.5l-0.1,0.5h-6.3c0.1-0.2,0.1-0.4,0.1-0.5c0-0.4-0.2-0.8-0.4-1.1
		c-0.4-0.6-0.9-1.1-1.5-1.4c-0.9-0.5-1.9-0.7-2.9-0.8c-1-0.1-1.9,0.1-2.8,0.4c-0.9,0.4-1.2,0.9-1,1.4c0.3,0.8,0.7,1.4,1.3,2
		c0.7,0.7,1.3,1.4,1.9,2.2c0.6,0.7,0.7,1.6,0.3,2.4c-0.7,1.1-1.7,2-3,2.4c-2.1,0.9-4.4,1.4-6.7,1.4c-2.5,0.1-4.9-0.2-7.3-1l-3.6,1.6
		l-4.2-2.1l3.5-1.5c-0.6-0.4-1.2-0.9-1.7-1.5c-0.6-0.7-1-1.6-1-2.6c0-0.3,0-0.5,0-0.8l0.1-0.3h6.3c-0.1,0.2-0.1,0.4-0.2,0.6
		c0,0.5,0.2,1,0.5,1.4c0.5,0.8,1.2,1.4,2.1,1.8c1.1,0.6,2.4,0.9,3.6,0.9c1.1,0.1,2.3-0.1,3.4-0.5c0.9-0.4,1.2-0.9,1-1.4
		c-0.3-0.8-0.8-1.4-1.4-2c-0.7-0.7-1.3-1.4-1.9-2.2c-0.6-0.7-0.7-1.6-0.3-2.4c0.7-1.2,1.9-2,3.2-2.4c2-0.8,4.2-1.2,6.4-1.2
		c2.3-0.1,4.6,0.3,6.8,1.1l3.6-1.6l3.9,2.1l-3.6,1.6C264.4,232.1,264.9,232.8,265.2,233.6z"></path><path class="st1" d="M247.9,254.5c-16.5,0-29.9-8-29.9-17.9s13.4-17.9,29.9-17.9s29.9,8,29.9,17.9S264.3,254.5,247.9,254.5z
		 M247.9,220.6c-15.4,0-27.9,7.1-27.9,15.9s12.5,15.9,27.9,15.9s27.9-7.1,27.9-15.9S263.2,220.6,247.9,220.6L247.9,220.6z"></path><ellipse class="st1" cx="247.8" cy="231" rx="34.4" ry="20.2"></ellipse><polygon class="st1" points="213.4,231 213.4,225.1 217.1,229.8 	"></polygon><polygon class="st1" points="282.2,225.1 282.2,231 277.8,231 281,226.3 	"></polygon><ellipse class="st3" cx="247.8" cy="225.1" rx="34.4" ry="20.2"></ellipse><path class="st1" d="M265.2,222.4c0.2,0.5,0.3,1,0.3,1.5l-0.1,0.5h-6.3c0.1-0.2,0.1-0.4,0.1-0.5c0-0.4-0.2-0.8-0.4-1.1
		c-0.4-0.6-0.9-1.1-1.5-1.4c-0.9-0.5-1.9-0.7-2.9-0.8c-1-0.1-1.9,0.1-2.8,0.4c-0.9,0.4-1.2,0.9-1,1.4c0.3,0.8,0.7,1.4,1.3,2
		c0.7,0.7,1.3,1.4,1.9,2.2c0.6,0.7,0.7,1.6,0.3,2.4c-0.7,1.1-1.7,2-3,2.4c-2.1,0.9-4.4,1.4-6.7,1.4c-2.5,0.1-4.9-0.2-7.3-1l-3.6,1.6
		l-4.2-2.1l3.5-1.5c-0.6-0.4-1.2-0.9-1.7-1.5c-0.6-0.7-1-1.6-1-2.6c0-0.3,0-0.5,0-0.8l0.1-0.3h6.3c-0.1,0.2-0.1,0.4-0.2,0.6
		c0,0.5,0.2,1,0.5,1.4c0.5,0.8,1.2,1.4,2.1,1.8c1.1,0.6,2.4,0.9,3.6,0.9c1.1,0.1,2.3-0.1,3.4-0.5c0.9-0.4,1.2-0.8,1-1.4
		c-0.3-0.8-0.8-1.4-1.4-2c-0.7-0.7-1.3-1.4-1.9-2.2c-0.6-0.7-0.7-1.6-0.3-2.4c0.7-1.2,1.9-2,3.2-2.4c2-0.8,4.2-1.2,6.4-1.2
		c2.3-0.1,4.6,0.3,6.8,1.1l3.6-1.6l3.9,2.1l-3.6,1.6C264.4,221,264.9,221.6,265.2,222.4z"></path><path class="st1" d="M247.9,243.3c-16.5,0-29.9-8-29.9-17.9s13.4-17.9,29.9-17.9s29.9,8,29.9,17.9S264.3,243.3,247.9,243.3z
		 M247.9,209.5c-15.4,0-27.9,7.1-27.9,15.9s12.5,15.9,27.9,15.9s27.9-7.1,27.9-15.9S263.2,209.5,247.9,209.5z"></path><ellipse class="st1" cx="247.8" cy="222.7" rx="34.4" ry="20.2"></ellipse><polygon class="st1" points="213.4,222.7 213.4,216.9 217.1,221.5 	"></polygon><polygon class="st1" points="282.2,216.9 282.2,222.7 277.8,222.7 281,218 	"></polygon><ellipse class="st3" cx="247.8" cy="216.9" rx="34.4" ry="20.2"></ellipse><path class="st1" d="M265.2,214.2c0.2,0.5,0.3,1,0.3,1.5l-0.1,0.5h-6.3c0.1-0.2,0.1-0.4,0.1-0.5c0-0.4-0.2-0.8-0.4-1.1
		c-0.4-0.6-0.9-1.1-1.5-1.4c-0.9-0.5-1.9-0.7-2.9-0.8c-1-0.1-1.9,0.1-2.8,0.4c-0.9,0.4-1.2,0.9-1,1.4c0.3,0.8,0.7,1.4,1.3,2
		c0.7,0.7,1.3,1.4,1.9,2.2c0.6,0.7,0.7,1.6,0.3,2.4c-0.7,1.1-1.7,2-3,2.4c-2.1,0.9-4.4,1.4-6.7,1.4c-2.5,0.1-4.9-0.2-7.3-1l-3.6,1.6
		l-4.2-2.1l3.5-1.5c-0.6-0.4-1.2-0.9-1.7-1.5c-0.4-0.4-0.6-0.9-0.8-1.4c-0.1-0.4-0.2-0.8-0.2-1.1c0-0.3,0-0.5,0-0.8l0.1-0.3h6.3
		c-0.1,0.2-0.1,0.4-0.2,0.6c0,0.5,0.2,1,0.5,1.4c0.5,0.8,1.2,1.4,2.1,1.8c1.1,0.6,2.4,0.9,3.6,1c1.1,0.1,2.3-0.1,3.4-0.5
		c0.9-0.4,1.2-0.9,1-1.4c-0.3-0.8-0.8-1.4-1.4-2c-0.7-0.7-1.3-1.4-1.9-2.2c-0.6-0.7-0.7-1.6-0.3-2.4c0.7-1.2,1.9-2,3.2-2.4
		c2-0.8,4.2-1.2,6.4-1.2c2.3-0.1,4.6,0.3,6.8,1.1l3.6-1.6l3.9,2.1l-3.6,1.6C264.4,212.8,264.9,213.4,265.2,214.2z"></path><path class="st1" d="M247.9,235.1c-16.5,0-29.9-8-29.9-17.9s13.4-17.9,29.9-17.9s29.9,8,29.9,17.9S264.3,235.1,247.9,235.1z
		 M247.9,201.2c-15.4,0-27.9,7.1-27.9,15.9s12.5,15.9,27.9,15.9s27.9-7.1,27.9-15.9S263.2,201.2,247.9,201.2z"></path><ellipse class="st1" cx="253.4" cy="211.6" rx="34.4" ry="20.2"></ellipse><polygon class="st1" points="219,211.6 219,205.8 222.7,210.4 	"></polygon><polygon class="st1" points="287.8,205.8 287.8,211.6 283.4,211.6 286.6,206.9 	"></polygon><ellipse class="st3" cx="253.4" cy="205.8" rx="34.4" ry="20.2"></ellipse><path class="st1" d="M270.8,203.1c0.2,0.5,0.3,1,0.3,1.5l-0.1,0.5h-6.3c0.1-0.2,0.1-0.4,0.1-0.5c0-0.4-0.2-0.8-0.4-1.1
		c-0.3-0.6-0.9-1.1-1.5-1.4c-0.9-0.5-1.9-0.7-3-0.8c-1-0.1-1.9,0.1-2.8,0.4c-0.9,0.4-1.2,0.9-1,1.4c0.3,0.8,0.7,1.4,1.3,2
		c0.7,0.7,1.3,1.4,1.9,2.2c0.6,0.7,0.7,1.6,0.3,2.4c-0.7,1.1-1.8,2-3,2.4c-2.1,0.9-4.4,1.4-6.7,1.4c-2.4,0.1-4.9-0.2-7.2-0.9
		l-3.6,1.6l-4.2-2.1l3.5-1.5c-0.6-0.4-1.2-0.9-1.7-1.5c-0.6-0.7-1-1.6-1-2.6c0-0.3,0-0.5,0-0.8l0.1-0.3h6.3
		c-0.1,0.2-0.1,0.4-0.1,0.6c0,0.5,0.2,1,0.5,1.4c0.5,0.8,1.2,1.4,2.1,1.8c1.1,0.6,2.4,0.9,3.7,0.9c1.1,0.1,2.3-0.1,3.4-0.5
		c0.9-0.4,1.2-0.9,1-1.4c-0.3-0.8-0.8-1.5-1.4-2c-0.7-0.7-1.3-1.4-1.9-2.2c-0.6-0.7-0.7-1.6-0.3-2.4c0.8-1.2,1.9-2,3.2-2.4
		c2-0.8,4.2-1.2,6.4-1.3c2.3-0.1,4.6,0.3,6.8,1.1l3.6-1.6l3.9,2.1l-3.6,1.6C270,201.6,270.5,202.3,270.8,203.1z"></path><path class="st1" d="M253.4,224.4c-17,0-30.4-8.1-30.4-18.4s13.4-18.4,30.4-18.4s30.4,8.1,30.4,18.4S270.5,224.4,253.4,224.4z
		 M253.4,190.6c-15.1,0-27.4,6.9-27.4,15.4s12.3,15.4,27.4,15.4s27.4-6.9,27.4-15.4S268.5,190.6,253.4,190.6z"></path><ellipse class="st1" cx="265.6" cy="199.6" rx="34.4" ry="20.2"></ellipse><polygon class="st1" points="231.2,199.6 231.2,193.8 234.9,198.5 	"></polygon><ellipse class="st3" cx="265.6" cy="193.8" rx="34.4" ry="20.2"></ellipse><path class="st1" d="M283,191.1c0.2,0.5,0.3,1,0.3,1.5l-0.1,0.5h-6.3c0.1-0.2,0.1-0.4,0.1-0.5c0-0.4-0.2-0.8-0.4-1.1
		c-0.4-0.6-0.9-1.1-1.5-1.4c-0.9-0.5-1.9-0.7-3-0.8c-1-0.1-1.9,0.1-2.8,0.4c-0.9,0.4-1.2,0.9-1,1.4c0.3,0.8,0.7,1.4,1.3,2
		c0.7,0.7,1.3,1.4,1.9,2.2c0.6,0.7,0.7,1.6,0.3,2.4c-0.7,1.1-1.8,2-3,2.4c-2.1,0.9-4.4,1.4-6.7,1.4c-2.5,0.1-4.9-0.2-7.3-1l-3.6,1.6
		L247,200l3.5-1.5c-0.6-0.4-1.2-0.9-1.7-1.5c-0.4-0.4-0.7-0.9-0.8-1.4c-0.1-0.4-0.2-0.8-0.2-1.1c0-0.3,0-0.5,0-0.8l0.1-0.3h6.3
		c-0.1,0.2-0.1,0.4-0.2,0.6c0,0.5,0.2,1,0.5,1.4c0.5,0.8,1.2,1.4,2.1,1.8c1.1,0.6,2.4,0.9,3.6,0.9c1.1,0.1,2.3-0.1,3.4-0.5
		c0.9-0.4,1.2-0.8,1-1.4c-0.3-0.8-0.8-1.4-1.4-2c-0.7-0.7-1.3-1.4-1.9-2.2c-0.6-0.7-0.7-1.6-0.3-2.4c0.7-1.2,1.9-2,3.2-2.4
		c2-0.8,4.2-1.2,6.4-1.3c2.3-0.1,4.6,0.3,6.8,1.1l3.6-1.6l3.9,2.1l-3.6,1.6C282.1,189.6,282.6,190.3,283,191.1z"></path><path class="st1" d="M265.6,212c-16.5,0-29.9-8-29.9-17.9s13.4-17.9,29.9-17.9s29.9,8,29.9,17.9S282.1,212,265.6,212z M265.6,178.1
		c-15.4,0-27.9,7.1-27.9,15.9s12.5,15.9,27.9,15.9s27.9-7.1,27.9-15.9S281,178.1,265.6,178.1z"></path><ellipse class="st1" cx="248.9" cy="182.7" rx="34.4" ry="20.2"></ellipse><polygon class="st1" points="214.5,182.7 214.5,176.9 218.2,181.5 	"></polygon><polygon class="st1" points="283.3,176.9 283.3,182.7 278.9,182.7 282.1,178 	"></polygon><ellipse class="st4" cx="248.9" cy="176.9" rx="34.4" ry="20.2"></ellipse><path class="st1" d="M266.3,174.2c0.2,0.5,0.3,1,0.3,1.5l-0.1,0.5h-6.3c0.1-0.2,0.1-0.4,0.1-0.5c0-0.4-0.2-0.8-0.4-1.1
		c-0.3-0.6-0.9-1.1-1.5-1.4c-0.9-0.5-1.9-0.7-2.9-0.8c-1-0.1-1.9,0.1-2.8,0.4c-0.9,0.4-1.2,0.8-1,1.4c0.3,0.8,0.8,1.4,1.3,2
		c0.7,0.7,1.3,1.4,1.9,2.2c0.6,0.7,0.7,1.6,0.3,2.4c-0.7,1.1-1.7,2-3,2.4c-2.1,0.9-4.4,1.4-6.7,1.4c-2.5,0.1-4.9-0.2-7.3-1l-3.6,1.6
		l-4.3-2.2l3.5-1.5c-0.6-0.4-1.2-0.9-1.6-1.4c-0.4-0.4-0.7-0.9-0.8-1.4c-0.1-0.4-0.2-0.8-0.2-1.1c0-0.3,0-0.5,0-0.8l0.1-0.3h6.3
		c-0.1,0.2-0.1,0.4-0.2,0.6c0,0.5,0.2,1,0.5,1.4c0.5,0.8,1.2,1.4,2.1,1.8c1.1,0.6,2.4,0.9,3.6,0.9c1.1,0.1,2.3-0.1,3.4-0.5
		c0.9-0.4,1.2-0.8,1-1.4c-0.3-0.8-0.8-1.4-1.4-2c-0.7-0.7-1.3-1.4-1.9-2.2c-0.6-0.7-0.7-1.6-0.3-2.4c0.8-1.2,1.9-2.1,3.3-2.5
		c2-0.8,4.2-1.2,6.4-1.3c2.3-0.1,4.6,0.3,6.8,1.1l3.6-1.6l3.9,2.1l-3.6,1.6C265.5,172.6,266,173.4,266.3,174.2z"></path><path class="st1" d="M248.9,195c-16.5,0-29.9-8-29.9-17.9s13.4-17.9,29.9-17.9s29.9,8,29.9,17.9S265.4,195,248.9,195z M248.9,161.2
		c-15.4,0-27.9,7.1-27.9,15.9s12.5,15.9,27.9,15.9s27.9-7.1,27.9-15.9S264.3,161.2,248.9,161.2L248.9,161.2z"></path></g><g id="phone"><linearGradient id="SVGID_00000057870505654269378070000001793601013626180492_" gradientUnits="userSpaceOnUse" x1="362.6094" y1="-1666.5004" x2="346.4694" y2="-1636.5504" gradientTransform="matrix(1 0 0 1 0 1954.76)"><stop offset="0" style="stop-color: rgb(59, 207, 186);"></stop><stop offset="0.23" style="stop-color: rgb(59, 207, 186);"></stop><stop offset="1" style="stop-color: rgb(112, 159, 249);"></stop></linearGradient><path d="M340.5,269.4l-53.6,30.3
		c0,0,51.6,31.7,81.1,49.6l46.8-28.4" style="fill: url(&quot;#SVGID_00000057870505654269378070000001793601013626180492_&quot;);"></path><path class="st6" d="M418.5,108.9l-73.9-43.6c-2.2-1.1-4.7-1.3-7-0.5h-0.1c-0.5,0.2-1.1,0.4-1.6,0.7l-7,3.1l3.7,1.7l0,0l2.3,189.1
		c0,6.8,3.6,13,9.5,16.5l68.9,40.2l-1.1,6.5l9.4-4.9l0,0c1.9-1,3-2.9,3-5v-193C424.5,115.1,422.2,111.1,418.5,108.9z"></path><path class="st7" d="M418.5,108.9l-73.9-43.6c-2.2-1.1-4.7-1.3-7-0.5h-0.1c-0.5,0.2-1.1,0.4-1.6,0.7l-7,3.1l3.7,1.7l0,0l2.3,189.1
		c0,6.8,3.6,13,9.5,16.5l68.9,40.2l-1.1,6.5l9.4-4.9l0,0c1.9-1,3-2.9,3-5v-193C424.5,115.1,422.2,111.1,418.5,108.9z"></path><path class="st8" d="M406.8,322.1l-71.4-41.6c-5.9-3.4-9.5-9.7-9.5-16.5V73.2c0-2.8,2.2-5,5-5.1c0.9,0,1.8,0.2,2.6,0.7l75.9,44.8
		c3.7,2.2,6,6.2,6,10.5v192.9c0,3.2-2.6,5.8-5.8,5.8C408.7,322.9,407.7,322.6,406.8,322.1z"></path><polygon class="st9" points="411,135.8 329.6,89.2 329.6,256.1 411,303.2 	"></polygon><ellipse class="st10" transform="matrix(0.9727 -0.2323 0.2323 0.9727 -56.6411 92.0882)" cx="362.8" cy="286.6" rx="3.8" ry="5.1"></ellipse><path class="st10" d="M359.7,97.2L359.7,97.2c0,0.7,0.4,1.3,0.9,1.6l15.7,9c0.9,0.5,2,0.2,2.5-0.7c0,0,0,0,0,0
		c0.2-0.3,0.2-0.6,0.2-0.9v-0.4c0-0.7-0.4-1.3-0.9-1.6l-15.7-8.6c-0.9-0.5-2-0.2-2.5,0.7C359.8,96.6,359.7,96.9,359.7,97.2z"></path><ellipse class="st10" transform="matrix(0.9372 -0.3489 0.3489 0.9372 -9.6651 129.06)" cx="353.5" cy="91.4" rx="1.8" ry="2.4"></ellipse><linearGradient id="SVGID_00000000945313421217404930000017835358033137090982_" gradientUnits="userSpaceOnUse" x1="367.673" y1="-1744.36" x2="365.993" y2="-1709.09" gradientTransform="matrix(1 0 0 1 0 1954.76)"><stop offset="1.000000e-02" style="stop-color: rgb(0, 47, 63);"></stop><stop offset="1" style="stop-color: rgb(21, 144, 186);"></stop></linearGradient><polyline points="394.5,199.6 394.5,271.7 
		339.9,242.8 339.9,169.6 	" style="fill: url(&quot;#SVGID_00000000945313421217404930000017835358033137090982_&quot;);"></polyline><path class="st1" d="M360.4,217.8c-15.8,0-29.1-6.2-33.1-14.7l-1.3,0.4c0,11.1,15.4,20.2,34.4,20.2c17.5,0,32-7.7,34.1-17.6
		l-2.1-1.1C387.5,212.5,375,217.8,360.4,217.8z"></path><path class="st1" d="M326,197.7v5.8l1.3-0.4C326.4,201.4,326,199.6,326,197.7z"></path><path class="st4" d="M333,197.9c0,8.6,12.3,15.5,27.5,15.5c12.7,0,23.5-4.9,26.5-11.6l-9-5v0.2h-6.3c0.2-0.6,0.1-1.2-0.3-1.7
		c-0.3-0.6-0.8-1.1-1.5-1.4c-0.9-0.5-1.9-0.7-3-0.8c-1-0.1-1.9,0.1-2.8,0.4c-0.9,0.4-1.2,0.9-1,1.4c0.3,0.8,0.8,1.4,1.3,2
		c0.7,0.7,1.3,1.4,1.9,2.2c0.6,0.7,0.7,1.6,0.3,2.4c-0.7,1.1-1.8,2-3.1,2.3c-2.1,0.9-4.4,1.4-6.7,1.4c-2.5,0.1-4.9-0.2-7.3-1
		l-3.6,1.6l-4.2-2.1l3.5-1.5c-0.6-0.4-1.2-0.9-1.7-1.5c-0.4-0.4-0.6-0.9-0.8-1.4c-0.1-0.4-0.2-0.8-0.2-1.1c0-0.3,0-0.5,0-0.8
		l0.1-0.3h6.3c-0.1,0.2-0.1,0.4-0.1,0.6c0,0.5,0.2,1,0.5,1.4c0.5,0.8,1.2,1.4,2.1,1.8c1.1,0.6,2.4,0.9,3.7,0.9
		c1.1,0.1,2.3-0.1,3.4-0.5c0.9-0.4,1.2-0.9,1-1.4c-0.3-0.8-0.8-1.5-1.4-2c-0.7-0.7-1.3-1.4-1.9-2.2c-0.6-0.7-0.7-1.6-0.3-2.4
		c0.7-1.2,1.9-2,3.2-2.4c2-0.8,4.2-1.2,6.4-1.3h0.1l-12.2-6.9C341.7,184.7,333,190.7,333,197.9z"></path><path class="st4" d="M327.2,203.1c4,8.5,17.3,14.7,33.1,14.7c14.6,0,27.1-5.4,32.1-12.9l-3-1.7c-3.8,7.5-15.3,13-29,13
		c-16.7,0-30.3-8.2-30.3-18.4c0-7.8,8.1-14.5,19.5-17.1l-2.9-1.6c-12.3,3.1-20.8,10.2-20.8,18.5C326,199.5,326.4,201.4,327.2,203.1z
		"></path><path class="st1" d="M359.2,191.1c-1.3,0.4-2.4,1.3-3.2,2.4c-0.4,0.8-0.3,1.7,0.3,2.4c0.6,0.8,1.2,1.5,1.9,2.2
		c0.6,0.6,1.1,1.2,1.4,2c0.2,0.6-0.1,1.1-1,1.4c-1.1,0.4-2.2,0.6-3.4,0.5c-1.3,0-2.5-0.4-3.7-0.9c-0.9-0.4-1.6-1-2.1-1.8
		c-0.3-0.4-0.5-0.9-0.5-1.4c0-0.2,0.1-0.4,0.2-0.6h-6.3l-0.1,0.3c0,0.3,0,0.5,0,0.8c0,0.4,0.1,0.8,0.2,1.1c0.2,0.5,0.5,1,0.8,1.4
		c0.5,0.6,1.1,1.1,1.7,1.5l-3.4,1.5l4.2,2.1l3.6-1.6c2.4,0.8,4.8,1.1,7.3,1c2.3,0,4.5-0.5,6.7-1.4c1.3-0.4,2.4-1.2,3-2.4
		c0.4-0.8,0.2-1.8-0.3-2.4c-0.6-0.8-1.2-1.5-1.9-2.2c-0.6-0.6-1.1-1.2-1.4-2c-0.2-0.6,0.1-1.1,1-1.4c0.9-0.4,1.9-0.5,2.8-0.4
		c1,0.1,2,0.3,2.9,0.8c0.6,0.3,1.2,0.8,1.5,1.4c0.2,0.3,0.4,0.7,0.4,1.1c0,0.2-0.1,0.4-0.1,0.5h6.3v-0.3l-12.4-7h-0.1
		C363.4,189.8,361.2,190.3,359.2,191.1z"></path><path class="st1" d="M330.1,197.9c0,10.1,13.6,18.3,30.3,18.3c13.7,0,25.2-5.5,29-13l-2.4-1.4c-3.1,6.7-13.8,11.6-26.5,11.6
		c-15.1,0-27.5-7-27.5-15.5c0-7.2,8.7-13.2,20.5-15l-3.8-2.1C338.3,183.4,330.1,190.1,330.1,197.9z"></path></g><g id="coins1"><polygon class="st1" points="225.9,353 225.9,347.1 229.6,351.8 	"></polygon><polygon class="st1" points="231.4,341.8 231.4,336 235.2,340.6 	"></polygon><polygon class="st1" points="300.2,336 300.2,341.8 295.9,341.8 299.1,337.1 	"></polygon><polygon class="st1" points="312.4,324.1 312.4,329.9 308.1,329.9 311.3,325.2 	"></polygon><polygon class="st1" points="319.1,313.1 319.1,318.9 314.8,318.9 318,314.3 	"></polygon><linearGradient id="SVGID_00000135685578450861755950000000910996266189879484_" gradientUnits="userSpaceOnUse" x1="268.2256" y1="-1615.4633" x2="217.3856" y2="-1573.3732" gradientTransform="matrix(1 0 0 1 0 1954.76)"><stop offset="0" style="stop-color: rgb(59, 207, 186);"></stop><stop offset="0.23" style="stop-color: rgb(59, 207, 186);"></stop><stop offset="1" style="stop-color: rgb(112, 159, 249);"></stop></linearGradient><path d="M226.4,341.6l-40.4,24
		c0,0,16.6,18.7,47.4,31.7l55.5-33.3" style="fill: url(&quot;#SVGID_00000135685578450861755950000000910996266189879484_&quot;);"></path><ellipse class="st1" cx="260.3" cy="353" rx="34.4" ry="20.2"></ellipse><polygon class="st1" points="294.7,347.1 294.7,353 290.3,353 293.5,348.3 	"></polygon><ellipse class="st3" cx="260.3" cy="347.1" rx="34.4" ry="20.2"></ellipse><path class="st1" d="M277.7,344.5c0.3,0.5,0.4,1,0.3,1.5l-0.1,0.5h-6.3c0.1-0.2,0.1-0.4,0.1-0.5c0-0.4-0.2-0.8-0.4-1.1
		c-0.3-0.6-0.9-1.1-1.5-1.4c-0.9-0.5-1.9-0.7-3-0.8c-1-0.1-1.9,0.1-2.8,0.4c-0.9,0.4-1.2,0.9-1,1.4c0.3,0.8,0.7,1.4,1.3,2
		c0.7,0.7,1.3,1.4,1.9,2.2c0.6,0.7,0.7,1.6,0.3,2.4c-0.7,1.1-1.7,2-3,2.4c-2.1,0.9-4.4,1.4-6.7,1.4c-2.5,0.1-4.9-0.2-7.3-1l-3.6,1.5
		l-4.2-2.1l3.5-1.5c-0.6-0.4-1.2-0.9-1.7-1.5c-0.4-0.4-0.6-0.9-0.8-1.4c-0.1-0.4-0.2-0.8-0.2-1.1c0-0.3,0-0.5,0-0.8l0.1-0.3h6.3
		c-0.1,0.2-0.1,0.4-0.1,0.6c0,0.5,0.2,1,0.5,1.4c0.5,0.8,1.2,1.4,2.1,1.8c1.1,0.6,2.4,0.9,3.7,0.9c1.1,0.1,2.3-0.1,3.4-0.5
		c0.9-0.4,1.2-0.8,1-1.4c-0.3-0.8-0.8-1.5-1.4-2c-0.7-0.7-1.3-1.4-1.9-2.2c-0.6-0.7-0.7-1.6-0.3-2.4c0.7-1.2,1.9-2,3.2-2.4
		c2-0.8,4.2-1.2,6.4-1.3c2.3-0.1,4.6,0.3,6.8,1.1l3.6-1.5l3.9,2.1l-3.6,1.6C276.8,342.9,277.4,343.6,277.7,344.5z"></path><path class="st1" d="M260.3,365.3c-16.5,0-29.9-8-29.9-17.9s13.4-17.9,29.9-17.9s29.9,8,29.9,17.9S276.8,365.3,260.3,365.3z
		 M260.3,331.5c-15.4,0-27.9,7.1-27.9,15.9s12.5,15.9,27.9,15.9s27.9-7.1,27.9-15.9S275.7,331.5,260.3,331.5z"></path><ellipse class="st1" cx="265.8" cy="341.8" rx="34.4" ry="20.2"></ellipse><ellipse class="st3" cx="265.8" cy="336" rx="34.4" ry="20.2"></ellipse><path class="st1" d="M283.3,333.3c0.2,0.5,0.3,1,0.3,1.5l-0.1,0.5h-6.3c0.1-0.2,0.1-0.4,0.1-0.5c0-0.4-0.2-0.8-0.4-1.1
		c-0.3-0.6-0.9-1.1-1.5-1.4c-0.9-0.5-1.9-0.7-3-0.8c-1-0.1-1.9,0.1-2.8,0.4c-0.9,0.4-1.2,0.9-1,1.4c0.3,0.8,0.7,1.4,1.3,2
		c0.7,0.7,1.3,1.4,1.9,2.2c0.6,0.7,0.7,1.6,0.3,2.4c-0.7,1.1-1.7,2-3,2.4c-2.1,0.9-4.4,1.4-6.7,1.4c-2.5,0.1-4.9-0.2-7.3-1l-3.6,1.5
		l-4.2-2.1l3.5-1.5c-0.6-0.4-1.2-0.9-1.7-1.5c-0.4-0.4-0.6-0.9-0.8-1.4c-0.1-0.4-0.2-0.8-0.2-1.1c0-0.3,0-0.5,0-0.8l0.1-0.3h6.3
		c-0.1,0.2-0.1,0.4-0.1,0.6c0,0.5,0.2,1,0.5,1.4c0.5,0.8,1.2,1.4,2.1,1.8c1.1,0.6,2.4,0.9,3.6,0.9c1.1,0.1,2.3-0.1,3.4-0.5
		c0.9-0.4,1.2-0.8,1-1.4c-0.3-0.8-0.8-1.4-1.4-2c-0.7-0.7-1.3-1.4-1.9-2.2c-0.6-0.7-0.7-1.6-0.3-2.4c0.7-1.2,1.9-2,3.2-2.4
		c2-0.8,4.2-1.2,6.4-1.3c2.3-0.1,4.6,0.3,6.8,1.1l3.6-1.5l3.9,2.1l-3.6,1.6C282.4,331.8,283,332.5,283.3,333.3z"></path><path class="st1" d="M265.9,354.7c-17,0-30.4-8.1-30.4-18.4s13.3-18.4,30.4-18.4s30.4,8.1,30.4,18.4S283,354.7,265.9,354.7z
		 M265.9,320.8c-15.1,0-27.4,6.9-27.4,15.4s12.3,15.4,27.4,15.4s27.4-6.9,27.4-15.4S281,320.8,265.9,320.8L265.9,320.8z"></path><ellipse class="st1" cx="278" cy="329.9" rx="34.4" ry="20.2"></ellipse><polygon class="st1" points="243.6,329.9 243.6,324.1 247.4,328.7 	"></polygon><ellipse class="st3" cx="278" cy="324.1" rx="34.4" ry="20.2"></ellipse><path class="st1" d="M295.5,321.4c0.2,0.5,0.3,1,0.3,1.5l-0.1,0.5h-6.3c0.1-0.2,0.1-0.4,0.1-0.5c0-0.4-0.2-0.8-0.4-1.1
		c-0.3-0.6-0.9-1.1-1.5-1.4c-0.9-0.5-2-0.8-3-0.8c-1-0.1-1.9,0.1-2.8,0.4c-0.9,0.4-1.2,0.8-1,1.4c0.3,0.8,0.8,1.4,1.3,2
		c0.7,0.7,1.3,1.4,1.9,2.2c0.6,0.7,0.7,1.6,0.3,2.4c-0.7,1.1-1.7,2-3,2.4c-2.1,0.9-4.4,1.4-6.7,1.4c-2.5,0.1-4.9-0.2-7.3-1l-3.6,1.5
		l-4.2-2.1l3.5-1.5c-0.6-0.4-1.2-0.9-1.7-1.5c-0.4-0.4-0.6-0.9-0.8-1.4c-0.1-0.4-0.2-0.8-0.2-1.1c0-0.3,0-0.5,0-0.8l0.1-0.3h6.4
		c-0.1,0.2-0.1,0.4-0.2,0.6c0,0.5,0.2,1,0.5,1.4c0.5,0.8,1.2,1.4,2.1,1.8c1.1,0.6,2.4,0.9,3.7,1c1.1,0.1,2.3-0.1,3.4-0.5
		c0.9-0.4,1.2-0.8,1-1.4c-0.3-0.8-0.8-1.4-1.4-2c-0.7-0.7-1.3-1.4-1.9-2.2c-0.6-0.7-0.7-1.6-0.3-2.4c0.7-1.2,1.9-2,3.2-2.4
		c2-0.8,4.2-1.2,6.4-1.3c2.3-0.1,4.6,0.3,6.8,1.1l3.6-1.5l3.9,2.1l-3.6,1.5C294.6,319.9,295.1,320.6,295.5,321.4z"></path><path class="st1" d="M278.1,342.2c-16.5,0-29.9-8-29.9-17.9s13.4-17.9,29.9-17.9s29.9,8,29.9,17.9S294.6,342.2,278.1,342.2z
		 M278.1,308.4c-15.4,0-27.9,7.1-27.9,15.9s12.5,15.9,27.9,15.9s27.9-7.1,27.9-15.9S293.5,308.4,278.1,308.4z"></path><ellipse class="st1" cx="284.7" cy="318.9" rx="34.4" ry="20.2"></ellipse><polygon class="st1" points="250.4,318.9 250.4,313.1 254.1,317.8 	"></polygon><ellipse class="st4" cx="284.7" cy="313.1" rx="34.4" ry="20.2"></ellipse><path class="st1" d="M302.2,310.4c0.2,0.5,0.3,1,0.3,1.5l-0.1,0.5H296c0.1-0.2,0.1-0.4,0.1-0.5c0-0.4-0.2-0.8-0.4-1.1
		c-0.3-0.6-0.9-1.1-1.5-1.4c-0.9-0.5-1.9-0.7-3-0.8c-1-0.1-1.9,0.1-2.8,0.4c-0.9,0.4-1.2,0.9-1,1.4c0.3,0.8,0.7,1.4,1.3,2
		c0.7,0.7,1.3,1.4,1.9,2.2c0.6,0.7,0.7,1.6,0.3,2.4c-0.7,1.1-1.8,2-3,2.4c-2.1,0.9-4.4,1.4-6.7,1.4c-2.5,0.1-4.9-0.2-7.3-1l-3.6,1.5
		l-4.2-2.1l3.5-1.5c-0.6-0.4-1.2-0.9-1.7-1.5c-0.4-0.4-0.7-0.9-0.8-1.4c-0.1-0.4-0.2-0.8-0.2-1.1c0-0.3,0-0.5,0-0.8l0.1-0.3h6.3
		c-0.1,0.2-0.1,0.4-0.2,0.6c0,0.5,0.2,1,0.5,1.4c0.5,0.8,1.2,1.4,2.1,1.8c1.1,0.6,2.4,0.9,3.6,0.9c1.1,0.1,2.3-0.1,3.4-0.5
		c0.9-0.4,1.2-0.9,1-1.4c-0.3-0.8-0.8-1.4-1.4-2c-0.7-0.7-1.3-1.4-1.9-2.2c-0.6-0.7-0.7-1.6-0.3-2.4c0.8-1.2,1.9-2,3.2-2.4
		c2-0.8,4.2-1.2,6.4-1.3c2.3-0.1,4.6,0.3,6.8,1.1l3.6-1.5l3.9,2.1l-3.5,1.7C301.3,309,301.8,309.7,302.2,310.4z"></path><path class="st1" d="M284.8,331.3c-16.5,0-29.9-8-29.9-17.9s13.4-17.9,29.9-17.9s29.9,8,29.9,17.9S301.3,331.3,284.8,331.3z
		 M284.8,297.4c-15.4,0-27.9,7.1-27.9,15.9s12.5,15.9,27.9,15.9s27.9-7.1,27.9-15.9S300.2,297.4,284.8,297.4z"></path></g><g id="btc"><linearGradient id="SVGID_00000161602817033817179780000002972602186173462710_" gradientUnits="userSpaceOnUse" x1="138.5622" y1="-1652.6174" x2="90.2522" y2="-1612.6174" gradientTransform="matrix(1 0 0 1 0 1954.76)"><stop offset="0" style="stop-color: rgb(59, 207, 186);"></stop><stop offset="0.23" style="stop-color: rgb(59, 207, 186);"></stop><stop offset="1" style="stop-color: rgb(112, 159, 249);"></stop></linearGradient><path d="M103.7,299.8l-45.5,24.6
		c0,0,26,14.5,55.5,32.5l46.8-28.5" style="fill: url(&quot;#SVGID_00000161602817033817179780000002972602186173462710_&quot;);"></path><path class="st6" d="M159.2,292.5c-1.7-0.1-3.4-0.6-4.9-1.4l-28.4-15l-0.2-29.6l-15.1,9l0.2,25.3l-1.4,0.9l-0.2,0.1l-0.1-14.9
		l-2.2-1.2l-11.3-5.9l-15.1,9l11.3,5.9l2.3,1.2l0.1,16.2l-2.2,1.3l2.2,1.1l9.6-5.8l0.1,10.9l13-7.8l2,1l0.1,14.7l0.1,15.7l15.1-9
		v-2.9l9.2-5.5l2,1.1l0.1,14.2l0.1,16.1l15.1-9l-0.1-16.1l-0.1-14.2l-4.3-2.3l6.9-4.1C161.8,292.2,160.5,292.5,159.2,292.5z"></path><path class="st6" d="M180.9,276.3c-2.9-5.9-6.9-11.3-11.8-15.8l5.2-3.1c1.4-0.9,2.7-2.1,3.6-3.5c2.5-4,3.7-8.7,3.5-13.5
		c-0.1-3.8-0.6-7.6-1.7-11.2c-1.1-4-2.6-7.9-4.6-11.5c-1.9-3.7-4.3-7.1-7.1-10.3c-2.4-2.8-5.3-5.1-8.5-7l0,0l-0.2-21l-15.1-8
		l-11.3,6.8l-0.1-12.8l-15.2-7.9l-15.1,9l15.1,8v3.9l-9.6-5.1l0,0l-16.4-8.6l-15.1,9l16.5,8.6l0,0v16.1l-2.2,1.4l2.2,1.2l9.6-5.8
		v2.6l14.8,7.7l-7.5,4.5l0.2,28.2l25.6,13.5c3.2,1.7,6,1.9,8.2,0.6l15.1-9c-2.2,1.3-5,1.1-8.2-0.6l-25.6-13.5l-0.2-27.8l1.8-1.1
		l2.3,1.2l0.1,10.3l15.1,7.9l7.3-4.4c0.4,0.4,0.8,0.8,1.1,1.2c2.8,3.1,5.1,6.6,7.1,10.3c2,3.7,3.5,7.5,4.6,11.6
		c1,3.6,1.6,7.4,1.7,11.2c0.2,4-0.7,8.1-2.5,11.7l-11.5,6.9c5.6,4.8,10.2,10.7,13.5,17.3c3.3,6.5,5,13.7,5.1,21
		c0.2,3.9-0.6,7.7-2.4,11.2c-1,1.7-2.4,3.2-4.1,4.2l15.1-9c1.7-1,3.1-2.5,4.1-4.2c1.8-3.4,2.6-7.3,2.4-11.2
		C185.9,290.1,184.2,282.8,180.9,276.3z M144.2,188.5v3.9l-11.2-5.9v-3.9L144.2,188.5z"></path><g class="st14"><path class="st9" d="M159.2,292.5c-1.7-0.1-3.4-0.6-4.9-1.4l-28.4-15l-0.2-29.6l-15.1,9l0.2,25.3l-1.4,0.9l-0.2,0.1l-0.1-14.9
			l-2.2-1.2l-11.3-5.9l-15.1,9l11.3,5.9l2.3,1.2l0.1,16.2l-2.2,1.3l2.2,1.1l9.6-5.8l0.1,10.9l13-7.8l2,1l0.1,14.7l0.1,15.7l15.1-9
			v-2.9l9.2-5.5l2,1.1l0.1,14.2l0.1,16.1l15.1-9l-0.1-16.1l-0.1-14.2l-4.3-2.3l6.9-4.1C161.8,292.2,160.5,292.5,159.2,292.5z"></path><path class="st9" d="M180.9,276.3c-2.9-5.9-6.9-11.3-11.8-15.8l5.2-3.1c1.4-0.9,2.7-2.1,3.6-3.5c2.5-4,3.7-8.7,3.5-13.5
			c-0.1-3.8-0.6-7.6-1.7-11.2c-1.1-4-2.6-7.9-4.6-11.5c-1.9-3.7-4.3-7.1-7.1-10.3c-2.4-2.8-5.3-5.1-8.5-7l0,0l-0.2-21l-15.1-8
			l-11.3,6.8l-0.1-12.8l-15.2-7.9l-15.1,9l15.1,8v3.9l-9.6-5.1l0,0l-16.4-8.6l-15.1,9l16.5,8.6l0,0v16.1l-2.2,1.4l2.2,1.2l9.6-5.8
			v2.6l14.8,7.7l-7.5,4.5l0.2,28.2l25.6,13.5c3.2,1.7,6,1.9,8.2,0.6l15.1-9c-2.2,1.3-5,1.1-8.2-0.6l-25.6-13.5l-0.2-27.8l1.8-1.1
			l2.3,1.2l0.1,10.3l15.1,7.9l7.3-4.4c0.4,0.4,0.8,0.8,1.1,1.2c2.8,3.1,5.1,6.6,7.1,10.3c2,3.7,3.5,7.5,4.6,11.6
			c1,3.6,1.6,7.4,1.7,11.2c0.2,4-0.7,8.1-2.5,11.7l-11.5,6.9c5.6,4.8,10.2,10.7,13.5,17.3c3.3,6.5,5,13.7,5.1,21
			c0.2,3.9-0.6,7.7-2.4,11.2c-1,1.7-2.4,3.2-4.1,4.2l15.1-9c1.7-1,3.1-2.5,4.1-4.2c1.8-3.4,2.6-7.3,2.4-11.2
			C185.9,290.1,184.2,282.8,180.9,276.3z M144.2,188.5v3.9l-11.2-5.9v-3.9L144.2,188.5z"></path></g><polygon class="st6" points="93.9,276 94,294.6 91.8,293.4 77.6,286 80.3,268.8 91.6,274.8 	"></polygon><polygon class="st6" points="118.7,293 118.8,307.7 119,323.4 103.9,315.4 103.7,299.8 103.6,285.1 	"></polygon><polygon class="st6" points="145.2,307 145.3,321.2 145.4,337.4 130.4,329.4 130.2,313.7 130.1,299 	"></polygon><polygon class="st6" points="93.1,182.3 93.1,182.4 93.3,201 91,199.8 79.6,193.8 76.7,173.7 	"></polygon><polygon class="st6" points="117.8,174.5 117.9,195.5 118,205.7 102.9,197.8 102.8,187.5 102.7,166.6 	"></polygon><path class="st6" d="M165.9,285.4c3.3,6.5,5,13.7,5.1,21c0.2,3.9-0.6,7.7-2.4,11.2c-1.5,2.6-3.9,4.5-6.8,5.4
		c-3.3,0.9-6.8,1-10.1,0.2c-2.2-0.4-4.3-1.1-6.3-1.9l-0.1-14.3l-15.1-7.9l0.1,14.7l-11.4-6l-0.1-14.7l-15.1-7.9l0.1,14.7l-12-6.3
		l2.3,1.2l-0.2-18.7l-2.2-1.2L91,199.9l2.3,1.1l-0.1-18.6l9.7,5.1l0.1,10.3l15.1,7.9l-0.1-10.2l11.4,6l0.1,10.3l15.1,7.9l-0.1-10.2
		c3.2,1.9,6.1,4.3,8.5,7.1c2.7,3.1,5.1,6.6,7,10.3c2,3.7,3.5,7.5,4.6,11.5c1,3.6,1.6,7.4,1.7,11.2c0.2,4.8-1,9.5-3.5,13.5
		c-2.3,3.5-6.3,5.5-10.5,5.1C157.9,272.9,162.5,278.8,165.9,285.4z M150.7,297.2c0.7-1.6,1-3.4,0.9-5.2c0-2.1-0.3-4.2-0.9-6.2
		c-0.6-2.1-1.4-4.2-2.4-6.1c-1-1.9-2.2-3.6-3.6-5.1c-1.3-1.5-2.9-2.7-4.6-3.6l-29.4-15.5l0.2,29.5l28.4,15c1.5,0.8,3.2,1.3,4.9,1.4
		c1.4,0.1,2.8-0.2,3.9-1c1.2-0.8,2.1-2,2.6-3.3 M110.1,210l0.2,28.2l25.6,13.5c3.2,1.7,6,1.9,8.2,0.6s3.4-4.2,3.3-8.7
		c0-4.2-1.1-8.3-3.2-11.9c-1.8-3.3-4.5-6-7.7-7.9L110.1,210"></path><polygon class="st6" points="144.2,188.5 144.4,209.5 144.5,219.7 129.4,211.8 129.3,201.5 129.2,180.6 	"></polygon></g></svg>