<?xml version="1.0" encoding="utf-8"?>
<!-- Generator: Adobe Illustrator 27.5.0, SVG Export Plug-In . SVG Version: 6.00 Build 0)  -->
<svg version="1.1" id="Ñëîé_1" xmlns="http://www.w3.org/2000/svg" xmlns:xlink="http://www.w3.org/1999/xlink" x="0px" y="0px"
	 viewBox="0 0 600 450" style="enable-background:new 0 0 600 450;" xml:space="preserve">
<radialGradient id="SVGID_1_" cx="199.008" cy="143.6702" r="356.2617" fx="-136.9616" fy="25.1509" gradientUnits="userSpaceOnUse">
	<stop  offset="0" style="stop-color:#2B237C"/>
	<stop  offset="1" style="stop-color:#180D5B"/>
</radialGradient>
<rect x="0" style="fill:url(#SVGID_1_);" width="600" height="450"/>
<g style="opacity:0.2;">
	<g>
		
			<linearGradient id="SVGID_00000041267176502806301730000010540028404671087749_" gradientUnits="userSpaceOnUse" x1="-4445.5303" y1="-1360.0901" x2="-4445.5303" y2="-1595.0239" gradientTransform="matrix(-0.866 0.5 1 0.5774 -2124.9495 3390.8977)">
			<stop  offset="0" style="stop-color:#42E8E0"/>
			<stop  offset="0.0185" style="stop-color:#40DEDA"/>
			<stop  offset="0.1149" style="stop-color:#37ADBC"/>
			<stop  offset="0.2166" style="stop-color:#2E82A2"/>
			<stop  offset="0.3219" style="stop-color:#285E8C"/>
			<stop  offset="0.4319" style="stop-color:#22417A"/>
			<stop  offset="0.5479" style="stop-color:#1E2A6C"/>
			<stop  offset="0.6729" style="stop-color:#1A1A63"/>
			<stop  offset="0.813" style="stop-color:#19105D"/>
			<stop  offset="1" style="stop-color:#180D5B"/>
		</linearGradient>
		<path style="opacity:0.6;fill:url(#SVGID_00000041267176502806301730000010540028404671087749_);" d="M60,287.498l139.833-80.733
			L430.15,339.888c1.998,1.154,1.998,4.038,0,5.191l-129.786,74.932c-3.435,1.983-7.667,1.983-11.102,0L60,287.498z"/>
	</g>
</g>
<g style="opacity:0.5;">
	<g>
		
			<linearGradient id="SVGID_00000078009074394959768250000006093195002250444972_" gradientUnits="userSpaceOnUse" x1="-4459.8037" y1="-1372.451" x2="-4459.8037" y2="-1607.3848" gradientTransform="matrix(-0.866 0.5 1 0.5774 -2124.9495 3390.8977)">
			<stop  offset="0" style="stop-color:#42E8E0"/>
			<stop  offset="0.0185" style="stop-color:#40DEDA"/>
			<stop  offset="0.1149" style="stop-color:#37ADBC"/>
			<stop  offset="0.2166" style="stop-color:#2E82A2"/>
			<stop  offset="0.3219" style="stop-color:#285E8C"/>
			<stop  offset="0.4319" style="stop-color:#22417A"/>
			<stop  offset="0.5479" style="stop-color:#1E2A6C"/>
			<stop  offset="0.6729" style="stop-color:#1A1A63"/>
			<stop  offset="0.813" style="stop-color:#19105D"/>
			<stop  offset="1" style="stop-color:#180D5B"/>
		</linearGradient>
		<path style="opacity:0.6;fill:url(#SVGID_00000078009074394959768250000006093195002250444972_);" d="M60,273.224l139.833-80.733
			L430.15,325.615c1.998,1.154,1.998,4.038,0,5.191l-129.786,74.932c-3.435,1.983-7.667,1.983-11.102,0L60,273.224z"/>
	</g>
</g>
<g>
	<g>
		
			<linearGradient id="SVGID_00000116226215469687834160000011170116625271005602_" gradientUnits="userSpaceOnUse" x1="-4474.0771" y1="-1384.8119" x2="-4474.0771" y2="-1619.7457" gradientTransform="matrix(-0.866 0.5 1 0.5774 -2124.9495 3390.8977)">
			<stop  offset="0" style="stop-color:#42E8E0"/>
			<stop  offset="0.0185" style="stop-color:#40DEDA"/>
			<stop  offset="0.1149" style="stop-color:#37ADBC"/>
			<stop  offset="0.2166" style="stop-color:#2E82A2"/>
			<stop  offset="0.3219" style="stop-color:#285E8C"/>
			<stop  offset="0.4319" style="stop-color:#22417A"/>
			<stop  offset="0.5479" style="stop-color:#1E2A6C"/>
			<stop  offset="0.6729" style="stop-color:#1A1A63"/>
			<stop  offset="0.813" style="stop-color:#19105D"/>
			<stop  offset="1" style="stop-color:#180D5B"/>
		</linearGradient>
		<path style="opacity:0.6;fill:url(#SVGID_00000116226215469687834160000011170116625271005602_);" d="M60,258.95l139.833-80.733
			L430.15,311.341c1.998,1.154,1.998,4.038,0,5.191l-129.786,74.932c-3.435,1.983-7.667,1.983-11.102,0L60,258.95z"/>
	</g>
</g>
<g>
	<polygon style="opacity:0.3;fill:#42E8E0;" points="171.734,231.786 145.749,216.783 171.733,201.781 197.718,216.784 	"/>
	<polygon style="opacity:0.5;fill:#42E8E0;" points="171.734,214.504 145.749,199.502 171.733,184.5 197.718,199.502 	"/>
	<polygon style="opacity:0.7;fill:#42E8E0;" points="171.734,200.651 145.749,185.649 171.733,170.647 197.718,185.65 	"/>
	<path style="fill:#42E8E0;" d="M171.734,201.389c-0.128,0-0.254-0.033-0.369-0.099l-25.985-15.002
		c-0.228-0.132-0.369-0.375-0.369-0.639c0-0.264,0.141-0.507,0.369-0.639l25.984-15.002c0.229-0.132,0.509-0.132,0.737,0
		l25.985,15.002c0.228,0.132,0.369,0.375,0.369,0.639s-0.141,0.507-0.369,0.639l-25.984,15.002
		C171.988,201.356,171.861,201.389,171.734,201.389z M147.224,185.649l24.51,14.151l24.509-14.15l-24.51-14.151L147.224,185.649z"/>
</g>
<radialGradient id="SVGID_00000042702124358841811650000003376885078115157936_" cx="-2190.4707" cy="-516.4177" r="93.4642" gradientTransform="matrix(-0.866 0.5 0.866 0.5 -1277.7692 1536.9978)" gradientUnits="userSpaceOnUse">
	<stop  offset="0" style="stop-color:#42E8E0"/>
	<stop  offset="0.1539" style="stop-color:#33AEB9"/>
	<stop  offset="0.3113" style="stop-color:#267A95"/>
	<stop  offset="0.4663" style="stop-color:#1B5078"/>
	<stop  offset="0.6156" style="stop-color:#132E61"/>
	<stop  offset="0.7574" style="stop-color:#0D1651"/>
	<stop  offset="0.8889" style="stop-color:#090847"/>
	<stop  offset="1" style="stop-color:#080344"/>
</radialGradient>
<ellipse style="opacity:0.3;fill:url(#SVGID_00000042702124358841811650000003376885078115157936_);" cx="171.961" cy="183.554" rx="114.468" ry="66.088"/>
<radialGradient id="SVGID_00000065052575217332078630000004843977921942077595_" cx="-2148.6177" cy="-169.8061" r="63.135" gradientTransform="matrix(-0.866 0.5 0.866 0.5 -1277.7692 1536.9978)" gradientUnits="userSpaceOnUse">
	<stop  offset="0" style="stop-color:#42E8E0"/>
	<stop  offset="0.1539" style="stop-color:#33AEB9"/>
	<stop  offset="0.3113" style="stop-color:#267A95"/>
	<stop  offset="0.4663" style="stop-color:#1B5078"/>
	<stop  offset="0.6156" style="stop-color:#132E61"/>
	<stop  offset="0.7574" style="stop-color:#0D1651"/>
	<stop  offset="0.8889" style="stop-color:#090847"/>
	<stop  offset="1" style="stop-color:#080344"/>
</radialGradient>
<ellipse style="opacity:0.3;fill:url(#SVGID_00000065052575217332078630000004843977921942077595_);" cx="435.882" cy="377.786" rx="77.323" ry="44.643"/>
<g>
	<g>
		<g>
			<path style="fill:#42E8E0;" d="M294.94,393.525c-2.278,0-4.52-0.599-6.482-1.73l-74.725-43.143
				c-1.171-0.678-1.871-1.89-1.871-3.242c0-1.352,0.699-2.563,1.87-3.24l135.205-78.061c0.228-0.131,0.511-0.131,0.737,0
				l80.842,46.673c1.171,0.678,1.869,1.889,1.869,3.241c0,1.353-0.699,2.564-1.869,3.24l-129.092,74.532
				C299.461,392.927,297.219,393.525,294.94,393.525z M349.307,265.599L214.47,343.446c-0.71,0.41-1.133,1.144-1.133,1.963
				c0,0.82,0.424,1.555,1.134,1.965l74.725,43.144c3.477,2.006,8.013,2.006,11.492,0l129.091-74.532
				c0.709-0.409,1.133-1.144,1.133-1.963c0-0.819-0.424-1.554-1.133-1.964L349.307,265.599z"/>
		</g>
		<g>
			<g>
				<g>
					<g>
						<g>
							
								<linearGradient id="SVGID_00000074436966256183357180000009095881078109512336_" gradientUnits="userSpaceOnUse" x1="2462.1519" y1="223.6231" x2="2628.1936" y2="223.6231" gradientTransform="matrix(1 0 0 1 -2278.6904 0)">
								<stop  offset="0" style="stop-color:#C0BFF6"/>
								<stop  offset="0.2938" style="stop-color:#C5C4F7"/>
								<stop  offset="0.6399" style="stop-color:#D3D2F9"/>
								<stop  offset="1" style="stop-color:#E9E9FD"/>
							</linearGradient>
							<path style="fill:url(#SVGID_00000074436966256183357180000009095881078109512336_);" d="M349.473,233.95l-17.985-106.7
								l1.446-0.609l-2.173-1.246l0.004,0.013c-0.422-0.281-1.018-0.264-1.674,0.116l-143.733,82.984
								c-1.18,0.681-2.074,2.429-1.866,3.651l18.128,107.548c0.095,0.56,0.372,0.932,0.757,1.095l-0.002,0.001l2.126,1.228
								l0.365-1.985l-0.121,0.037l142.863-82.482C348.787,236.919,349.68,235.171,349.473,233.95z"/>
							
								<linearGradient id="SVGID_00000104694941563786971410000005431077428640449970_" gradientUnits="userSpaceOnUse" x1="2462.1528" y1="266.2053" x2="2490.6641" y2="266.2053" gradientTransform="matrix(1 0 0 1 -2278.6904 0)">
								<stop  offset="0" style="stop-color:#5761D7"/>
								<stop  offset="0.1779" style="stop-color:#5C66D9"/>
								<stop  offset="0.3876" style="stop-color:#6A73DF"/>
								<stop  offset="0.6134" style="stop-color:#8289E8"/>
								<stop  offset="0.849" style="stop-color:#A3A7F5"/>
								<stop  offset="1" style="stop-color:#BCBEFF"/>
							</linearGradient>
							<path style="fill:url(#SVGID_00000104694941563786971410000005431077428640449970_);" d="M186.159,211.426l-2.363-1.045
								c-0.265,0.605-0.395,1.242-0.304,1.779l18.128,107.548c0.095,0.56,0.372,0.932,0.757,1.095l-0.002,0.001l2.126,1.228
								l0.365-1.985l-0.121,0.037l7.229-4.174L186.159,211.426z"/>
							<path style="fill:#42E8E0;" d="M349.473,233.95l-17.985-106.7l1.1-0.463c-0.375-0.677-1.159-0.828-2.054-0.311
								L186.801,209.46c-1.18,0.682-2.074,2.429-1.866,3.651l18.128,107.548c0.048,0.28,0.142,0.512,0.27,0.697l0.844,0.488
								c0.115,0.01,0.235,0.005,0.361-0.015l0.328-1.783l-0.121,0.037l142.863-82.482
								C348.787,236.919,349.681,235.171,349.473,233.95z"/>
							<path style="fill:#24126A;" d="M349.862,238.894l-143.733,82.984c-1.11,0.641-2.06,0.271-2.255-0.878l-18.128-107.548
								c-0.207-1.222,0.686-2.97,1.866-3.651l143.733-82.984c1.11-0.641,2.06-0.271,2.255,0.878l18.128,107.548
								C351.935,236.465,351.042,238.213,349.862,238.894z"/>
							<g style="opacity:0.51;">
								<polygon style="fill:#453C9E;" points="329.467,133.682 190.92,213.672 208.101,314.96 346.555,235.023 								"/>
							</g>
						</g>
						<g>
							
								<linearGradient id="SVGID_00000012444523539339545800000002436984128543420595_" gradientUnits="userSpaceOnUse" x1="2484.3977" y1="314.0726" x2="2718.9028" y2="314.0726" gradientTransform="matrix(1 0 0 1 -2278.6904 0)">
								<stop  offset="0" style="stop-color:#5761D7"/>
								<stop  offset="0.1779" style="stop-color:#5C66D9"/>
								<stop  offset="0.3876" style="stop-color:#6A73DF"/>
								<stop  offset="0.6134" style="stop-color:#8289E8"/>
								<stop  offset="0.849" style="stop-color:#A3A7F5"/>
								<stop  offset="1" style="stop-color:#BCBEFF"/>
							</linearGradient>
							<path style="fill:url(#SVGID_00000012444523539339545800000002436984128543420595_);" d="M440.212,289.812l-7.844,4.096
								l-78.654-45.411c-1.316-0.76-3.614-0.664-5.134,0.213l-135.656,78.321c-1.298-0.726-7.217-3.573-7.217-3.573l2.871,7.481
								c0,0,0.01-0.008,0.012-0.009c0.119,0.333,0.374,0.643,0.803,0.891l82.839,47.827c1.316,0.76,3.614,0.665,5.134-0.213
								l138.819-80.147c0.624-0.36,1.006-0.796,1.165-1.238l0.011,0.007L440.212,289.812z"/>
							
								<linearGradient id="SVGID_00000008123253285653242840000003382094186610824623_" gradientUnits="userSpaceOnUse" x1="2563.1921" y1="306.2534" x2="2797.8223" y2="306.2534" gradientTransform="matrix(1 0 0 1 -2278.6904 0)">
								<stop  offset="0" style="stop-color:#C0BFF6"/>
								<stop  offset="0.2938" style="stop-color:#C5C4F7"/>
								<stop  offset="0.6399" style="stop-color:#D3D2F9"/>
								<stop  offset="1" style="stop-color:#E9E9FD"/>
							</linearGradient>
							<path style="fill:url(#SVGID_00000008123253285653242840000003382094186610824623_);" d="M439,291.101l-142.271,82.14
								c-1.557,0.899-3.913,0.997-5.262,0.218l-84.899-49.016c-1.349-0.779-1.18-2.139,0.378-3.038l142.271-82.14
								c1.557-0.899,3.913-0.997,5.262-0.218l84.899,49.016C440.726,288.842,440.557,290.202,439,291.101z"/>
							<path style="fill:#FFFFFF;" d="M439,290.281l-142.271,82.14c-1.557,0.899-3.913,0.997-5.262,0.218l-84.899-49.016
								c-0.442-0.255-0.704-0.575-0.825-0.918c-0.213,0.639,0.043,1.286,0.825,1.738l84.899,49.016
								c1.349,0.779,3.704,0.681,5.262-0.218L439,291.101c1.048-0.605,1.451-1.415,1.202-2.12
								C440.047,289.444,439.654,289.903,439,290.281z"/>
							<path style="fill:#2842A2;" d="M253.816,355.473v-1.56c0-0.148,0.09-0.216,0.201-0.152l5.503,3.177
								c0.111,0.064,0.201,0.236,0.201,0.384v1.56c0,0.148-0.09,0.216-0.201,0.152l-5.503-3.177
								C253.905,355.793,253.816,355.621,253.816,355.473z"/>
							<path style="fill:#2842A2;" d="M262.045,360.224v-1.56c0-0.148,0.09-0.216,0.201-0.152l5.503,3.177
								c0.111,0.064,0.201,0.236,0.201,0.384v1.56c0,0.148-0.09,0.216-0.201,0.152l-5.503-3.177
								C262.134,360.544,262.045,360.372,262.045,360.224z"/>
							<path style="fill:#ADB1F2;" d="M228.702,319.853l118.228-68.259c0.788-0.455,1.759-0.455,2.547,0.001l42.1,24.358
								c0.604,0.35,0.604,1.223-0.001,1.572l-118.172,68.227c-0.787,0.454-1.757,0.455-2.545,0l-42.157-24.327
								C228.097,321.076,228.097,320.202,228.702,319.853z"/>
							<path style="fill:#9198DB;" d="M228.702,321.425l0.423,0.244l117.804-68.014c0.788-0.455,1.759-0.455,2.547,0.001
								l41.677,24.113l0.423-0.244c0.605-0.349,0.605-1.222,0.001-1.572l-42.1-24.358c-0.788-0.456-1.759-0.456-2.547-0.001
								l-118.228,68.259C228.097,320.202,228.097,321.076,228.702,321.425z"/>
							<g>
								<polygon style="fill:#24126A;" points="352.654,257.764 249.957,317.056 245.391,314.42 348.088,255.128 								"/>
								<polygon style="fill:#24126A;" points="363.849,264.227 267.523,319.841 262.956,317.205 359.282,261.591 								"/>
								<polygon style="fill:#24126A;" points="371.14,268.437 257.727,333.916 253.16,331.28 366.574,265.801 								"/>
								<polygon style="fill:#24126A;" points="378.431,272.647 265.018,338.126 260.452,335.49 373.865,270.01 								"/>
								<polygon style="fill:#24126A;" points="385.723,276.856 272.309,342.336 267.743,339.699 381.156,274.22 								"/>
								<polygon style="fill:#24126A;" points="243.751,320.639 239.185,323.275 234.619,320.639 239.185,318.003 								"/>
								<polygon style="fill:#24126A;" points="259.858,324.267 250.38,329.738 245.814,327.102 255.291,321.63 								"/>
							</g>
							
								<linearGradient id="SVGID_00000001622389386716416840000007447718124421123460_" gradientUnits="userSpaceOnUse" x1="2602.9265" y1="319.5729" x2="2662.9851" y2="319.5729" gradientTransform="matrix(1 0 0 1 -2278.6904 0)">
								<stop  offset="0" style="stop-color:#C0BFF6"/>
								<stop  offset="0.2938" style="stop-color:#C5C4F7"/>
								<stop  offset="0.6399" style="stop-color:#D3D2F9"/>
								<stop  offset="1" style="stop-color:#E9E9FD"/>
							</linearGradient>
							<path style="fill:url(#SVGID_00000001622389386716416840000007447718124421123460_);" d="M351.482,336.371l31.878-18.405
								c1.246-0.719,1.246-1.886,0-2.605l-21.799-12.586c-1.246-0.719-3.266-0.719-4.512,0l-31.878,18.405
								c-1.246,0.719-1.246,1.886,0,2.605l21.799,12.586C348.216,337.09,350.236,337.09,351.482,336.371z"/>
							<path style="fill:#9198DB;" d="M325.171,322.246l31.878-18.405c1.246-0.719,3.266-0.719,4.512,0l21.799,12.586
								c0.385,0.222,0.636,0.489,0.783,0.77c0.33-0.629,0.078-1.338-0.783-1.835l-21.799-12.586c-1.246-0.719-3.266-0.719-4.512,0
								l-31.878,18.405c-0.861,0.497-1.113,1.206-0.783,1.836C324.535,322.735,324.786,322.468,325.171,322.246z"/>
						</g>
					</g>
					<g style="opacity:0.11;">
						<defs>
							<polygon id="SVGID_4_" style="opacity:0.11;" points="329.467,133.682 190.92,213.672 208.101,314.96 346.555,235.023 
															"/>
						</defs>
						<clipPath id="SVGID_00000103256939385614411990000013917643829445255075_">
							<use xlink:href="#SVGID_4_"  style="overflow:visible;"/>
						</clipPath>
						<g style="clip-path:url(#SVGID_00000103256939385614411990000013917643829445255075_);">
							
								<linearGradient id="SVGID_00000093137520919623853420000003441223586093421235_" gradientUnits="userSpaceOnUse" x1="2473.55" y1="254.2484" x2="2708.1802" y2="254.2484" gradientTransform="matrix(1 0 0 1 -2278.6904 0)">
								<stop  offset="0" style="stop-color:#C0BFF6"/>
								<stop  offset="0.2938" style="stop-color:#C5C4F7"/>
								<stop  offset="0.6399" style="stop-color:#D3D2F9"/>
								<stop  offset="1" style="stop-color:#E9E9FD"/>
							</linearGradient>
							<path style="fill:url(#SVGID_00000093137520919623853420000003441223586093421235_);" d="M349.358,239.096l-142.271,82.14
								c-1.557,0.899-3.913,0.997-5.262,0.218l-84.899-49.016c-1.349-0.779-1.18-2.139,0.378-3.038l142.271-82.14
								c1.557-0.899,3.913-0.997,5.262-0.218l84.899,49.016C351.084,236.837,350.915,238.197,349.358,239.096z"/>
							
								<linearGradient id="SVGID_00000106124956447125604580000006412438826760186291_" gradientUnits="userSpaceOnUse" x1="2458.1074" y1="237.0248" x2="2518.166" y2="237.0248" gradientTransform="matrix(1 0 0 1 -2278.6904 0)">
								<stop  offset="0" style="stop-color:#C0BFF6"/>
								<stop  offset="0.2938" style="stop-color:#C5C4F7"/>
								<stop  offset="0.6399" style="stop-color:#D3D2F9"/>
								<stop  offset="1" style="stop-color:#E9E9FD"/>
							</linearGradient>
							<path style="fill:url(#SVGID_00000106124956447125604580000006412438826760186291_);" d="M206.663,253.823l31.878-18.405
								c1.246-0.719,1.246-1.886,0-2.605l-21.799-12.586c-1.246-0.719-3.266-0.719-4.512,0l-31.878,18.405
								c-1.246,0.719-1.246,1.886,0,2.605l21.799,12.586C203.397,254.542,205.417,254.542,206.663,253.823z"/>
							<path style="fill:#9198DB;" d="M180.351,239.698l31.878-18.405c1.246-0.719,3.266-0.719,4.512,0l21.799,12.586
								c0.385,0.222,0.636,0.489,0.783,0.77c0.33-0.629,0.078-1.338-0.783-1.835l-21.799-12.586c-1.246-0.719-3.266-0.719-4.512,0
								l-31.878,18.405c-0.861,0.497-1.113,1.206-0.783,1.836C179.715,240.186,179.967,239.92,180.351,239.698z"/>
							<g>
								<path style="fill:#ADB1F2;" d="M166.338,282.586l118.228-68.259c0.788-0.455,1.759-0.455,2.547,0.001l42.101,24.358
									c0.604,0.35,0.604,1.223-0.001,1.572L211.04,308.485c-0.787,0.454-1.757,0.455-2.545,0l-42.157-24.327
									C165.733,283.809,165.732,282.935,166.338,282.586z"/>
								<path style="fill:#9198DB;" d="M166.338,284.158l0.423,0.244l117.804-68.014c0.788-0.455,1.759-0.455,2.547,0.001
									l41.677,24.113l0.423-0.244c0.605-0.349,0.605-1.222,0.001-1.572l-42.101-24.358c-0.788-0.456-1.759-0.456-2.547-0.001
									l-118.228,68.259C165.732,282.935,165.733,283.809,166.338,284.158z"/>
								<g>
									<polygon style="fill:#24126A;" points="318.195,237.025 215.199,296.49 219.278,298.846 322.275,239.38 									"/>
									<polygon style="fill:#24126A;" points="307.343,230.759 209.446,287.28 213.526,289.635 311.423,233.115 									"/>
									<polygon style="fill:#24126A;" points="202.136,291.5 192.993,296.779 197.073,299.135 206.216,293.856 									"/>
									<polygon style="fill:#24126A;" points="210.212,299.369 203.845,303.045 207.925,305.4 214.292,301.725 									"/>
									<polygon style="fill:#24126A;" points="300.543,226.833 186.193,292.853 190.273,295.209 304.623,229.189 									"/>
									<polygon style="fill:#24126A;" points="293.743,222.907 179.393,288.927 183.473,291.283 297.823,225.263 									"/>
									<polygon style="fill:#24126A;" points="286.943,218.982 172.593,285.001 176.673,287.357 291.023,221.337 									"/>
								</g>
							</g>
						</g>
					</g>
				</g>
			</g>
		</g>
		<g>
			<polygon style="fill:#42E8E0;" points="243.089,276.342 254.298,269.864 254.627,271.81 243.418,278.288 			"/>
			<polygon style="fill:#42E8E0;" points="256.101,268.829 262.208,265.299 262.537,267.246 256.429,270.775 			"/>
			<polygon style="fill:#42E8E0;" points="271.711,259.814 276.13,257.26 276.459,259.207 272.04,261.761 			"/>
			<polygon style="fill:#42E8E0;" points="268.489,261.677 269.999,260.804 270.328,262.75 268.817,263.623 			"/>
			<polygon style="fill:#42E8E0;" points="264.034,264.252 266.776,262.667 267.105,264.613 264.362,266.198 			"/>
			<polygon style="fill:#42E8E0;" points="251.958,261.455 256.377,258.901 256.706,260.847 252.287,263.401 			"/>
			<polygon style="fill:#42E8E0;" points="241.587,267.449 250.245,262.445 250.574,264.391 241.916,269.396 			"/>
			<g>
				<polygon style="fill:#42E8E0;" points="254.001,235.904 262.659,230.9 262.988,232.846 254.329,237.85 				"/>
				<polygon style="fill:#42E8E0;" points="249.546,238.479 252.288,236.894 252.617,238.84 249.874,240.425 				"/>
			</g>
			<polygon style="fill:#42E8E0;" points="255.445,244.809 264.104,239.804 264.432,241.751 255.774,246.755 			"/>
			<polygon style="fill:#42E8E0;" points="250.991,247.383 253.733,245.798 254.062,247.744 251.319,249.329 			"/>
			<polygon style="fill:#42E8E0;" points="247.609,197.476 231.299,206.903 230.97,204.957 247.281,195.53 			"/>
			<polygon style="fill:#42E8E0;" points="253.358,194.154 249.322,196.486 248.993,194.54 253.029,192.208 			"/>
			<polygon style="fill:#42E8E0;" points="282.02,192.262 265.709,201.689 265.381,199.743 281.691,190.316 			"/>
			<polygon style="fill:#42E8E0;" points="287.768,188.94 283.733,191.273 283.404,189.326 287.44,186.994 			"/>
			<polygon style="fill:#42E8E0;" points="236.469,208.795 232.049,211.349 231.721,209.403 236.14,206.849 			"/>
			<polygon style="fill:#42E8E0;" points="263.354,203.028 258.935,205.582 258.607,203.636 263.026,201.082 			"/>
			<polygon style="fill:#42E8E0;" points="246.839,202.801 238.181,207.805 237.852,205.859 246.511,200.855 			"/>
			<polygon style="fill:#42E8E0;" points="251.294,200.226 248.552,201.811 248.223,199.865 250.965,198.28 			"/>
			<polygon style="fill:#42E8E0;" points="261.745,194.197 253.086,199.201 252.758,197.255 261.416,192.25 			"/>
			<polygon style="fill:#42E8E0;" points="266.199,191.622 263.457,193.207 263.128,191.261 265.871,189.676 			"/>
			<polygon style="fill:#42E8E0;" points="262.603,198.58 258.184,201.134 257.855,199.188 262.275,196.633 			"/>
			<polygon style="fill:#42E8E0;" points="272.974,192.586 264.316,197.59 263.987,195.644 272.645,190.639 			"/>
			<polygon style="fill:#42E8E0;" points="277.429,190.011 274.686,191.596 274.358,189.65 277.1,188.065 			"/>
			<polygon style="fill:#42E8E0;" points="241.842,210.569 232.8,215.795 232.472,213.849 241.513,208.623 			"/>
			<polygon style="fill:#42E8E0;" points="250.093,205.801 243.555,209.58 243.226,207.633 249.764,203.854 			"/>
			<polygon style="fill:#42E8E0;" points="256.225,202.257 251.806,204.811 251.477,202.865 255.896,200.311 			"/>
			<polygon style="fill:#42E8E0;" points="299.082,182.421 290.04,187.647 289.711,185.7 298.753,180.475 			"/>
			<polygon style="fill:#42E8E0;" points="307.333,177.652 300.794,181.431 300.465,179.485 307.004,175.706 			"/>
			<polygon style="fill:#42E8E0;" points="313.464,174.108 309.045,176.662 308.716,174.716 313.135,172.162 			"/>
			<polygon style="fill:#42E8E0;" points="295.551,241.171 304.592,235.945 304.921,237.891 295.879,243.117 			"/>
			<polygon style="fill:#42E8E0;" points="287.299,245.939 293.838,242.16 294.167,244.107 287.628,247.886 			"/>
			<polygon style="fill:#42E8E0;" points="281.168,249.483 285.587,246.929 285.916,248.876 281.497,251.43 			"/>
			<polygon style="fill:#42E8E0;" points="292.549,247.803 301.591,242.578 301.92,244.524 292.878,249.75 			"/>
			<polygon style="fill:#42E8E0;" points="284.298,252.572 290.837,248.793 291.165,250.74 284.627,254.518 			"/>
			<polygon style="fill:#42E8E0;" points="278.167,256.116 282.586,253.562 282.914,255.508 278.495,258.062 			"/>
			<polygon style="fill:#42E8E0;" points="256.041,239.58 259.095,237.815 259.424,239.762 256.37,241.527 			"/>
			<polygon style="fill:#42E8E0;" points="250.293,242.903 254.329,240.57 254.657,242.517 250.622,244.849 			"/>
			<polygon style="fill:#42E8E0;" points="242.652,214.989 233.61,220.215 233.281,218.269 242.323,213.043 			"/>
			<polygon style="fill:#42E8E0;" points="250.903,210.221 244.364,214 244.035,212.053 250.574,208.274 			"/>
			<polygon style="fill:#42E8E0;" points="257.034,206.677 252.615,209.231 252.286,207.284 256.705,204.73 			"/>
			<polygon style="fill:#42E8E0;" points="237.414,222.896 234.361,224.661 234.032,222.715 237.086,220.95 			"/>
			<polygon style="fill:#42E8E0;" points="243.163,219.574 239.127,221.906 238.798,219.96 242.834,217.627 			"/>
			<polygon style="fill:#42E8E0;" points="251.378,214.826 244.875,218.584 244.547,216.638 251.049,212.879 			"/>
			<polygon style="fill:#42E8E0;" points="260.196,251.84 263.25,250.075 263.578,252.021 260.525,253.786 			"/>
			<polygon style="fill:#42E8E0;" points="254.448,255.162 258.483,252.83 258.812,254.776 254.776,257.109 			"/>
			<polygon style="fill:#42E8E0;" points="246.232,259.91 252.735,256.152 253.064,258.099 246.561,261.857 			"/>
			<polygon style="fill:#42E8E0;" points="264.847,244.622 271.35,240.863 271.679,242.81 265.176,246.568 			"/>
			<polygon style="fill:#42E8E0;" points="254.212,250.419 262.977,245.354 263.305,247.3 254.541,252.366 			"/>
			<polygon style="fill:#42E8E0;" points="249.757,252.994 252.499,251.409 252.828,253.355 250.086,254.94 			"/>
			<polygon style="fill:#42E8E0;" points="245.482,255.465 248.224,253.88 248.553,255.826 245.81,257.412 			"/>
			<g>
				<polygon style="fill:#42E8E0;" points="246.069,230.341 254.727,225.337 255.056,227.283 246.398,232.288 				"/>
				<polygon style="fill:#42E8E0;" points="241.614,232.916 244.357,231.331 244.685,233.277 241.943,234.862 				"/>
				<polygon style="fill:#42E8E0;" points="246.665,225.113 249.719,223.348 250.047,225.294 246.994,227.059 				"/>
				<polygon style="fill:#42E8E0;" points="257.446,228.676 260.5,226.911 260.829,228.857 257.775,230.622 				"/>
				<polygon style="fill:#42E8E0;" points="261.8,226.162 269.128,221.93 269.457,223.876 262.129,228.109 				"/>
				<polygon style="fill:#42E8E0;" points="270.428,221.182 274.786,218.663 275.115,220.61 270.756,223.128 				"/>
				<polygon style="fill:#42E8E0;" points="240.916,228.436 244.952,226.103 245.281,228.049 241.245,230.382 				"/>
				<g>
					<polygon style="fill:#42E8E0;" points="240.536,223.867 243.59,222.102 243.919,224.048 240.865,225.814 					"/>
					<polygon style="fill:#42E8E0;" points="234.788,227.19 238.824,224.857 239.152,226.803 235.117,229.136 					"/>
				</g>
				<polygon style="fill:#42E8E0;" points="253.015,231.233 255.757,229.648 256.086,231.595 253.344,233.18 				"/>
				<polygon style="fill:#42E8E0;" points="248.74,233.704 251.482,232.119 251.811,234.066 249.068,235.651 				"/>
			</g>
			<polygon style="fill:#42E8E0;" points="269.804,256.05 279.159,250.644 279.487,252.59 270.133,257.996 			"/>
			<polygon style="fill:#42E8E0;" points="259.327,262.106 268.092,257.04 268.421,258.986 259.656,264.052 			"/>
			<polygon style="fill:#42E8E0;" points="254.872,264.68 257.615,263.095 257.943,265.042 255.201,266.627 			"/>
			<polygon style="fill:#42E8E0;" points="250.597,267.151 253.339,265.566 253.668,267.512 250.926,269.098 			"/>
			<polygon style="fill:#42E8E0;" points="248.26,268.502 242.342,271.922 242.671,273.868 248.588,270.448 			"/>
		</g>
	</g>
</g>
<g>
	<g>
		<path style="fill:#FFFFFF;" d="M161.287,97.699V63.875h8.813c1.265,0,2.39,0.064,3.377,0.194c0.986,0.129,1.965,0.384,2.938,0.765
			c0.973,0.381,1.775,0.887,2.408,1.52c0.632,0.632,1.139,1.493,1.52,2.581c0.354,1.007,0.523,2.176,0.51,3.509
			c0,0.095,0,0.19,0,0.286c-0.055,3.944-1.707,6.209-4.958,6.794c1.945,0.258,3.427,1.074,4.447,2.448
			c1.02,1.374,1.543,3.271,1.571,5.692c0,0.082,0,0.157,0,0.225c-0.014,3.305-0.877,5.76-2.591,7.364
			c-1.768,1.632-4.312,2.448-7.63,2.448H161.287z M168.753,77.4h1.428c1.605,0,2.696-0.36,3.274-1.081
			c0.578-0.721,0.867-1.863,0.867-3.427c0-2.665-1.462-3.998-4.386-3.998h-1.183V77.4z M168.753,92.477h1.571
			c1.618,0,2.754-0.394,3.407-1.183c0.653-0.789,0.979-2.033,0.979-3.733c0-1.904-0.333-3.25-0.999-4.039
			c-0.667-0.789-1.83-1.184-3.489-1.184h-1.469V92.477z"/>
		<path style="fill:#FFFFFF;" d="M183.32,97.699l6.406-33.824h8.446l6.365,33.824h-6.896l-1.163-7.181h-4.937l-1.143,7.181H183.32z
			 M192.194,86.05h3.611l-1.816-13.097L192.194,86.05z"/>
		<path style="fill:#FFFFFF;" d="M207.088,97.699V63.875h5.264l6.957,16.239V63.875h6.202v33.824h-5.06l-6.977-17.504v17.504
			H207.088z"/>
		<path style="fill:#FFFFFF;" d="M229.631,97.699V63.875h5.264l6.957,16.239V63.875h6.202v33.824h-5.06l-6.977-17.504v17.504
			H229.631z"/>
		<path style="fill:#FFFFFF;" d="M252.175,97.699V63.875h15.199v5.1h-7.732v8.364h5.896v5.202h-5.896V92.64h7.814v5.06H252.175z"/>
		<path style="fill:#FFFFFF;" d="M270.006,97.699V63.875h9.221c1.428,0,2.693,0.082,3.794,0.245
			c1.101,0.164,2.135,0.449,3.101,0.857c0.965,0.408,1.761,0.945,2.387,1.612c0.625,0.666,1.115,1.523,1.469,2.57
			c0.354,1.047,0.531,2.271,0.531,3.672c0,2.217-0.299,3.998-0.898,5.345c-0.599,1.347-1.68,2.394-3.244,3.142l4.651,16.382h-7.732
			l-3.713-15.137h-2.101v15.137H270.006z M277.473,78.257h1.917c1.523,0,2.598-0.394,3.224-1.183
			c0.625-0.789,0.938-1.979,0.938-3.57c0-1.563-0.282-2.723-0.846-3.478c-0.565-0.755-1.541-1.132-2.928-1.132h-2.305V78.257z"/>
		<path style="fill:#FFFFFF;" d="M304.179,97.699V63.875h7.487v13.669h5.202V63.875h7.486v33.824h-7.486V82.888h-5.202v14.811
			H304.179z"/>
		<path style="fill:#FFFFFF;" d="M328.64,97.699V63.875h15.198v5.1h-7.732v8.364h5.897v5.202h-5.897V92.64h7.813v5.06H328.64z"/>
		<path style="fill:#FFFFFF;" d="M344.858,97.699l6.406-33.824h8.445l6.365,33.824h-6.896l-1.163-7.181h-4.936l-1.143,7.181H344.858
			z M353.733,86.05h3.61l-1.815-13.097L353.733,86.05z"/>
		<path style="fill:#FFFFFF;" d="M368.627,97.699V63.875h8.507c2.217,0,4.056,0.197,5.519,0.592c1.462,0.395,2.628,1.04,3.498,1.938
			c0.87,0.897,1.482,1.996,1.836,3.294c0.354,1.299,0.531,2.928,0.531,4.886v12.199c0,1.972-0.181,3.621-0.541,4.947
			c-0.36,1.326-0.973,2.448-1.836,3.366c-0.864,0.918-2.02,1.581-3.468,1.989c-1.449,0.408-3.262,0.612-5.438,0.612H368.627z
			 M376.093,92.518h1.143c0.571,0,1.058-0.038,1.459-0.112c0.401-0.075,0.734-0.207,1-0.398c0.265-0.19,0.476-0.391,0.632-0.602
			c0.156-0.211,0.272-0.517,0.347-0.918c0.075-0.401,0.123-0.782,0.143-1.143c0.02-0.36,0.03-0.847,0.03-1.458V73.341
			c0-0.857-0.034-1.516-0.103-1.979c-0.067-0.462-0.224-0.884-0.469-1.265c-0.245-0.38-0.608-0.643-1.092-0.786
			c-0.482-0.143-1.139-0.214-1.969-0.214h-1.122V92.518z"/>
		<path style="fill:#FFFFFF;" d="M392.19,97.699V63.875h15.198v5.1h-7.733v8.364h5.897v5.202h-5.897V92.64h7.814v5.06H392.19z"/>
		<path style="fill:#FFFFFF;" d="M410.022,97.699V63.875h9.221c1.428,0,2.693,0.082,3.795,0.245
			c1.102,0.164,2.135,0.449,3.101,0.857s1.761,0.945,2.387,1.612c0.625,0.666,1.115,1.523,1.469,2.57
			c0.354,1.047,0.53,2.271,0.53,3.672c0,2.217-0.299,3.998-0.897,5.345c-0.599,1.347-1.68,2.394-3.243,3.142l4.651,16.382h-7.732
			l-3.713-15.137h-2.102v15.137H410.022z M417.487,78.257h1.918c1.523,0,2.598-0.394,3.224-1.183
			c0.625-0.789,0.939-1.979,0.939-3.57c0-1.563-0.282-2.723-0.847-3.478c-0.565-0.755-1.54-1.132-2.928-1.132h-2.306V78.257z"/>
	</g>
	<g>
		<path style="fill:#FFFFFF;" d="M161.392,120.428v-6.476h1.18v5.66h1.551v0.816H161.392z"/>
		<path style="fill:#FFFFFF;" d="M166.071,120.502c-0.498,0-0.868-0.14-1.111-0.42c-0.244-0.28-0.365-0.68-0.365-1.201v-1.527
			c0-0.521,0.122-0.921,0.365-1.201c0.244-0.28,0.614-0.42,1.111-0.42c0.5,0,0.873,0.14,1.119,0.42
			c0.246,0.28,0.369,0.68,0.369,1.201v1.527c0,0.521-0.123,0.921-0.369,1.201S166.571,120.502,166.071,120.502z M166.075,119.732
			c0.088,0,0.161-0.02,0.217-0.059c0.056-0.039,0.096-0.1,0.121-0.182s0.041-0.162,0.049-0.238s0.012-0.176,0.012-0.299v-1.676
			c0-0.096-0.002-0.176-0.006-0.24c-0.004-0.064-0.013-0.133-0.027-0.209c-0.014-0.076-0.036-0.135-0.064-0.178
			c-0.029-0.043-0.068-0.079-0.117-0.109s-0.111-0.045-0.184-0.045c-0.088,0-0.161,0.02-0.217,0.061
			c-0.056,0.04-0.096,0.102-0.121,0.184s-0.041,0.162-0.049,0.238c-0.008,0.077-0.012,0.176-0.012,0.299v1.676
			c0,0.096,0.002,0.176,0.006,0.24c0.004,0.064,0.013,0.133,0.027,0.207c0.014,0.074,0.036,0.133,0.064,0.176
			c0.029,0.043,0.068,0.08,0.117,0.109S166.002,119.732,166.075,119.732z"/>
		<path style="fill:#FFFFFF;" d="M168.325,120.428v-4.625h1.094v0.711c0.154-0.274,0.309-0.47,0.467-0.59
			c0.158-0.12,0.326-0.18,0.506-0.18c0.055,0,0.109,0.006,0.164,0.02v1.082c-0.123-0.047-0.249-0.07-0.379-0.07
			c-0.156,0.005-0.294,0.044-0.412,0.117c-0.119,0.073-0.234,0.194-0.346,0.363v3.172H168.325z"/>
		<path style="fill:#FFFFFF;" d="M172.474,120.502c-0.529,0-0.909-0.146-1.141-0.438c-0.232-0.292-0.348-0.723-0.348-1.293v-1.309
			c0-0.57,0.117-1.001,0.352-1.293c0.234-0.291,0.612-0.438,1.133-0.438c0.276,0,0.508,0.041,0.697,0.121
			c0.189,0.081,0.336,0.203,0.441,0.367s0.18,0.354,0.225,0.568c0.044,0.215,0.066,0.473,0.066,0.775v0.605h-1.828v0.695
			c0,0.096,0,0.171,0.002,0.225c0.002,0.053,0.006,0.118,0.014,0.193c0.008,0.076,0.02,0.134,0.037,0.176
			c0.017,0.042,0.04,0.084,0.068,0.127c0.029,0.043,0.066,0.074,0.113,0.092c0.047,0.018,0.102,0.027,0.164,0.027
			c0.146,0,0.248-0.051,0.305-0.154c0.057-0.103,0.086-0.252,0.086-0.447v-0.266h1.035v0.184c0,0.479-0.119,0.846-0.357,1.1
			S172.945,120.502,172.474,120.502z M172.071,117.623h0.789v-0.441c0-0.234-0.029-0.402-0.088-0.504
			c-0.059-0.101-0.162-0.152-0.311-0.152c-0.151,0-0.254,0.057-0.309,0.172c-0.055,0.115-0.082,0.323-0.082,0.625V117.623z"/>
		<path style="fill:#FFFFFF;" d="M174.645,120.428v-4.625h1.039v0.406c0.31-0.326,0.676-0.488,1.098-0.488
			c0.385,0,0.642,0.189,0.77,0.566c0.326-0.377,0.715-0.566,1.168-0.566c0.258,0,0.465,0.094,0.621,0.281
			c0.156,0.188,0.234,0.459,0.234,0.816v3.609h-1.039v-3.516c0-0.169-0.028-0.289-0.084-0.359c-0.056-0.07-0.139-0.104-0.248-0.101
			c-0.19,0.005-0.381,0.095-0.574,0.27c0,0.01,0.001,0.026,0.002,0.047c0.001,0.021,0.002,0.038,0.002,0.051v3.609h-1.035v-3.516
			c0-0.169-0.028-0.289-0.084-0.359c-0.056-0.07-0.14-0.104-0.252-0.101c-0.182,0.005-0.375,0.096-0.578,0.273v3.703H174.645z"/>
		<path style="fill:#FFFFFF;" d="M182.372,115.072v-0.922h1.098v0.922H182.372z M182.372,120.428v-4.625h1.094v4.625H182.372z"/>
		<path style="fill:#FFFFFF;" d="M184.325,121.951v-6.148h1.094v0.356c0.287-0.287,0.598-0.428,0.934-0.426
			c0.164,0.003,0.309,0.041,0.436,0.113s0.225,0.164,0.297,0.271c0.072,0.108,0.13,0.236,0.176,0.383
			c0.046,0.147,0.076,0.284,0.092,0.41c0.016,0.126,0.024,0.254,0.024,0.385v1.516c0,0.234-0.02,0.45-0.059,0.646
			c-0.039,0.197-0.1,0.375-0.184,0.535c-0.084,0.16-0.197,0.285-0.342,0.375c-0.145,0.09-0.315,0.135-0.51,0.135
			c-0.287,0-0.574-0.139-0.863-0.418v1.867H184.325z M185.899,119.717c0.081,0,0.148-0.023,0.203-0.068
			c0.055-0.045,0.094-0.112,0.119-0.199c0.025-0.087,0.042-0.177,0.051-0.27c0.009-0.092,0.014-0.204,0.014-0.334v-1.594
			c0-0.107-0.006-0.203-0.018-0.287c-0.012-0.084-0.032-0.165-0.061-0.242c-0.029-0.077-0.072-0.135-0.129-0.176
			c-0.057-0.041-0.126-0.059-0.207-0.057c-0.143,0.003-0.294,0.064-0.453,0.184v2.899
			C185.575,119.669,185.735,119.717,185.899,119.717z"/>
		<path style="fill:#FFFFFF;" d="M189.337,120.502c-0.383,0-0.697-0.107-0.941-0.32c-0.245-0.213-0.413-0.521-0.504-0.922
			l0.828-0.301c0.057,0.255,0.138,0.449,0.242,0.58c0.104,0.131,0.234,0.195,0.391,0.189c0.115-0.002,0.209-0.043,0.283-0.123
			c0.074-0.08,0.109-0.176,0.104-0.291c-0.01-0.167-0.163-0.376-0.457-0.629l-0.621-0.531c-0.448-0.385-0.667-0.788-0.656-1.207
			c0.008-0.37,0.133-0.665,0.377-0.885c0.244-0.22,0.554-0.33,0.932-0.33c0.362,0,0.656,0.109,0.883,0.328
			c0.227,0.219,0.373,0.512,0.441,0.879l-0.719,0.301c-0.099-0.479-0.284-0.72-0.555-0.723c-0.115-0.003-0.207,0.033-0.275,0.105
			c-0.069,0.073-0.104,0.16-0.104,0.262c-0.003,0.141,0.126,0.324,0.387,0.551l0.633,0.574c0.107,0.094,0.195,0.178,0.266,0.252
			c0.07,0.074,0.144,0.165,0.221,0.271c0.077,0.107,0.134,0.221,0.172,0.344c0.038,0.122,0.057,0.254,0.057,0.395
			c0,0.391-0.129,0.693-0.389,0.908C190.072,120.395,189.741,120.502,189.337,120.502z"/>
		<path style="fill:#FFFFFF;" d="M192.036,120.498c-0.263,0-0.455-0.096-0.576-0.289c-0.121-0.193-0.182-0.43-0.182-0.711v-3.695
			h1.09v3.473c0,0.143,0.022,0.25,0.066,0.32c0.044,0.07,0.126,0.104,0.246,0.102c0.127,0,0.284-0.065,0.469-0.195v-3.699h1.09
			v4.625h-1.09v-0.434C192.782,120.33,192.411,120.498,192.036,120.498z"/>
		<path style="fill:#FFFFFF;" d="M195.083,120.428v-4.625h1.039v0.406c0.31-0.326,0.676-0.488,1.098-0.488
			c0.385,0,0.642,0.189,0.77,0.566c0.326-0.377,0.715-0.566,1.168-0.566c0.258,0,0.465,0.094,0.621,0.281
			c0.156,0.188,0.234,0.459,0.234,0.816v3.609h-1.039v-3.516c0-0.169-0.028-0.289-0.084-0.359c-0.056-0.07-0.139-0.104-0.248-0.101
			c-0.19,0.005-0.381,0.095-0.574,0.27c0,0.01,0.001,0.026,0.002,0.047c0.001,0.021,0.002,0.038,0.002,0.051v3.609h-1.035v-3.516
			c0-0.169-0.028-0.289-0.084-0.359c-0.056-0.07-0.14-0.104-0.252-0.101c-0.182,0.005-0.375,0.096-0.578,0.273v3.703H195.083z"/>
		<path style="fill:#FFFFFF;" d="M203.825,120.502c-0.377,0-0.66-0.134-0.848-0.402c-0.188-0.268-0.281-0.694-0.281-1.277v-1.344
			c0-0.247,0.019-0.471,0.057-0.672c0.038-0.201,0.098-0.384,0.18-0.551c0.082-0.166,0.197-0.295,0.346-0.387
			c0.148-0.091,0.326-0.137,0.531-0.137c0.292,0,0.565,0.119,0.82,0.355v-2.137h1.094v6.476h-1.094v-0.316
			C204.382,120.369,204.114,120.499,203.825,120.502z M204.208,119.721c0.133,0,0.273-0.042,0.422-0.125v-2.953
			c-0.148-0.094-0.29-0.141-0.426-0.141c-0.146,0-0.251,0.066-0.314,0.199c-0.064,0.133-0.096,0.302-0.096,0.508v1.695
			c0,0.167,0.009,0.305,0.027,0.414c0.018,0.109,0.059,0.204,0.123,0.283C204.008,119.681,204.096,119.721,204.208,119.721z"/>
		<path style="fill:#FFFFFF;" d="M207.95,120.502c-0.498,0-0.868-0.14-1.111-0.42c-0.244-0.28-0.365-0.68-0.365-1.201v-1.527
			c0-0.521,0.122-0.921,0.365-1.201c0.244-0.28,0.614-0.42,1.111-0.42c0.5,0,0.873,0.14,1.119,0.42
			c0.246,0.28,0.369,0.68,0.369,1.201v1.527c0,0.521-0.123,0.921-0.369,1.201C208.823,120.362,208.45,120.502,207.95,120.502z
			 M207.954,119.732c0.088,0,0.161-0.02,0.217-0.059c0.056-0.039,0.096-0.1,0.121-0.182c0.025-0.082,0.041-0.162,0.049-0.238
			c0.008-0.077,0.012-0.176,0.012-0.299v-1.676c0-0.096-0.002-0.176-0.006-0.24c-0.004-0.064-0.013-0.133-0.027-0.209
			c-0.014-0.076-0.036-0.135-0.064-0.178c-0.029-0.043-0.068-0.079-0.117-0.109s-0.111-0.045-0.184-0.045
			c-0.088,0-0.161,0.02-0.217,0.061c-0.056,0.04-0.096,0.102-0.121,0.184s-0.041,0.162-0.049,0.238
			c-0.008,0.077-0.012,0.176-0.012,0.299v1.676c0,0.096,0.002,0.176,0.006,0.24c0.004,0.064,0.013,0.133,0.027,0.207
			c0.014,0.074,0.036,0.133,0.064,0.176c0.029,0.043,0.068,0.08,0.117,0.109C207.82,119.717,207.881,119.732,207.954,119.732z"/>
		<path style="fill:#FFFFFF;" d="M210.259,120.428v-6.476h1.094v6.476H210.259z"/>
		<path style="fill:#FFFFFF;" d="M213.602,120.502c-0.497,0-0.868-0.14-1.111-0.42c-0.244-0.28-0.365-0.68-0.365-1.201v-1.527
			c0-0.521,0.122-0.921,0.365-1.201c0.244-0.28,0.614-0.42,1.111-0.42c0.5,0,0.873,0.14,1.119,0.42
			c0.246,0.28,0.369,0.68,0.369,1.201v1.527c0,0.521-0.123,0.921-0.369,1.201C214.476,120.362,214.102,120.502,213.602,120.502z
			 M213.606,119.732c0.088,0,0.161-0.02,0.217-0.059c0.056-0.039,0.096-0.1,0.121-0.182c0.025-0.082,0.041-0.162,0.049-0.238
			c0.008-0.077,0.012-0.176,0.012-0.299v-1.676c0-0.096-0.002-0.176-0.006-0.24c-0.004-0.064-0.013-0.133-0.027-0.209
			c-0.014-0.076-0.036-0.135-0.064-0.178c-0.029-0.043-0.068-0.079-0.117-0.109c-0.049-0.03-0.111-0.045-0.184-0.045
			c-0.088,0-0.161,0.02-0.217,0.061c-0.056,0.04-0.096,0.102-0.121,0.184s-0.041,0.162-0.049,0.238
			c-0.008,0.077-0.012,0.176-0.012,0.299v1.676c0,0.096,0.002,0.176,0.006,0.24c0.004,0.064,0.013,0.133,0.027,0.207
			c0.014,0.074,0.036,0.133,0.064,0.176c0.029,0.043,0.068,0.08,0.117,0.109C213.472,119.717,213.534,119.732,213.606,119.732z"/>
		<path style="fill:#FFFFFF;" d="M215.856,120.428v-4.625h1.094v0.711c0.154-0.274,0.309-0.47,0.467-0.59
			c0.158-0.12,0.326-0.18,0.506-0.18c0.055,0,0.109,0.006,0.164,0.02v1.082c-0.122-0.047-0.249-0.07-0.379-0.07
			c-0.156,0.005-0.293,0.044-0.412,0.117c-0.119,0.073-0.234,0.194-0.346,0.363v3.172H215.856z"/>
		<path style="fill:#FFFFFF;" d="M221.767,120.502c-0.383,0-0.697-0.107-0.941-0.32c-0.245-0.213-0.413-0.521-0.504-0.922
			l0.828-0.301c0.057,0.255,0.138,0.449,0.242,0.58c0.104,0.131,0.234,0.195,0.391,0.189c0.115-0.002,0.209-0.043,0.283-0.123
			s0.109-0.176,0.104-0.291c-0.01-0.167-0.163-0.376-0.457-0.629l-0.621-0.531c-0.448-0.385-0.667-0.788-0.656-1.207
			c0.008-0.37,0.133-0.665,0.377-0.885c0.244-0.22,0.554-0.33,0.932-0.33c0.362,0,0.656,0.109,0.883,0.328
			c0.226,0.219,0.373,0.512,0.441,0.879l-0.719,0.301c-0.099-0.479-0.284-0.72-0.555-0.723c-0.115-0.003-0.206,0.033-0.275,0.105
			c-0.069,0.073-0.104,0.16-0.104,0.262c-0.002,0.141,0.127,0.324,0.387,0.551l0.633,0.574c0.107,0.094,0.195,0.178,0.266,0.252
			c0.07,0.074,0.144,0.165,0.221,0.271c0.077,0.107,0.134,0.221,0.172,0.344c0.038,0.122,0.057,0.254,0.057,0.395
			c0,0.391-0.129,0.693-0.389,0.908C222.501,120.395,222.17,120.502,221.767,120.502z"/>
		<path style="fill:#FFFFFF;" d="M223.774,115.072v-0.922h1.098v0.922H223.774z M223.774,120.428v-4.625h1.094v4.625H223.774z"/>
		<path style="fill:#FFFFFF;" d="M227.017,120.49c-0.211-0.002-0.39-0.038-0.537-0.105c-0.147-0.068-0.26-0.165-0.34-0.291
			c-0.079-0.127-0.137-0.268-0.172-0.424c-0.035-0.156-0.053-0.338-0.053-0.547v-2.598h-0.457v-0.723h0.457v-1.359h1.098v1.359
			h0.703v0.723h-0.703v2.668c0,0.151,0.033,0.26,0.1,0.326c0.066,0.066,0.172,0.101,0.318,0.104
			c0.102,0.003,0.212-0.005,0.332-0.023v0.836C227.453,120.477,227.204,120.496,227.017,120.49z"/>
		<path style="fill:#FFFFFF;" d="M231.227,120.502c-0.291-0.003-0.531-0.117-0.717-0.342c-0.186-0.225-0.279-0.48-0.279-0.764
			c0-0.268,0.044-0.503,0.133-0.703c0.088-0.201,0.234-0.373,0.436-0.516c0.202-0.143,0.369-0.247,0.502-0.313
			c0.133-0.065,0.337-0.151,0.613-0.258c0.078-0.031,0.137-0.055,0.176-0.07v-0.387c0-0.208-0.024-0.361-0.072-0.457
			c-0.048-0.096-0.146-0.145-0.295-0.145c-0.242,0-0.366,0.17-0.371,0.508l-0.016,0.289l-1.047-0.039
			c0-0.016,0.001-0.044,0.002-0.086c0.001-0.042,0.002-0.069,0.002-0.082c0.034-0.484,0.178-0.84,0.432-1.066
			c0.254-0.227,0.617-0.34,1.088-0.34c0.455,0,0.793,0.124,1.014,0.371c0.22,0.248,0.33,0.598,0.33,1.051v2.113
			c0,0.354,0.029,0.741,0.086,1.16h-0.988c-0.06-0.302-0.098-0.529-0.113-0.68c-0.065,0.213-0.174,0.393-0.326,0.537
			C231.663,120.43,231.467,120.502,231.227,120.502z M231.645,119.654c0.084,0,0.166-0.031,0.248-0.094
			c0.082-0.063,0.148-0.126,0.197-0.191v-1.273c-0.542,0.299-0.813,0.639-0.813,1.019c0,0.167,0.032,0.298,0.096,0.395
			C231.438,119.606,231.528,119.654,231.645,119.654z"/>
		<path style="fill:#FFFFFF;" d="M233.958,120.428v-4.625h1.039v0.406c0.31-0.326,0.676-0.488,1.098-0.488
			c0.385,0,0.642,0.189,0.77,0.566c0.326-0.377,0.715-0.566,1.168-0.566c0.258,0,0.465,0.094,0.621,0.281
			c0.156,0.188,0.234,0.459,0.234,0.816v3.609h-1.039v-3.516c0-0.169-0.028-0.289-0.084-0.359c-0.056-0.07-0.139-0.104-0.248-0.101
			c-0.19,0.005-0.381,0.095-0.574,0.27c0,0.01,0.001,0.026,0.002,0.047c0.001,0.021,0.002,0.038,0.002,0.051v3.609h-1.035v-3.516
			c0-0.169-0.028-0.289-0.084-0.359c-0.056-0.07-0.14-0.104-0.252-0.101c-0.182,0.005-0.375,0.096-0.578,0.273v3.703H233.958z"/>
		<path style="fill:#FFFFFF;" d="M241.099,120.502c-0.529,0-0.909-0.146-1.141-0.438c-0.232-0.292-0.348-0.723-0.348-1.293v-1.309
			c0-0.57,0.117-1.001,0.352-1.293c0.234-0.291,0.612-0.438,1.133-0.438c0.276,0,0.508,0.041,0.697,0.121
			c0.189,0.081,0.336,0.203,0.441,0.367s0.18,0.354,0.225,0.568c0.044,0.215,0.066,0.473,0.066,0.775v0.605h-1.828v0.695
			c0,0.096,0,0.171,0.002,0.225c0.002,0.053,0.006,0.118,0.014,0.193c0.008,0.076,0.02,0.134,0.037,0.176
			c0.017,0.042,0.04,0.084,0.068,0.127c0.029,0.043,0.066,0.074,0.113,0.092c0.047,0.018,0.102,0.027,0.164,0.027
			c0.146,0,0.248-0.051,0.305-0.154c0.057-0.103,0.086-0.252,0.086-0.447v-0.266h1.035v0.184c0,0.479-0.119,0.846-0.357,1.1
			S241.57,120.502,241.099,120.502z M240.696,117.623h0.789v-0.441c0-0.234-0.029-0.402-0.088-0.504
			c-0.059-0.101-0.162-0.152-0.311-0.152c-0.151,0-0.254,0.057-0.309,0.172c-0.055,0.115-0.082,0.323-0.082,0.625V117.623z"/>
		<path style="fill:#FFFFFF;" d="M244.56,120.49c-0.211-0.002-0.39-0.038-0.537-0.105c-0.147-0.068-0.26-0.165-0.34-0.291
			c-0.08-0.127-0.137-0.268-0.172-0.424c-0.035-0.156-0.053-0.338-0.053-0.547v-2.598h-0.457v-0.723h0.457v-1.359h1.098v1.359h0.703
			v0.723h-0.703v2.668c0,0.151,0.033,0.26,0.1,0.326c0.066,0.066,0.172,0.101,0.318,0.104c0.102,0.003,0.212-0.005,0.332-0.023
			v0.836C244.996,120.477,244.747,120.496,244.56,120.49z"/>
		<path style="fill:#FFFFFF;" d="M245.993,121.525l-0.117-0.41c0.154-0.039,0.279-0.118,0.377-0.236
			c0.098-0.119,0.146-0.269,0.146-0.451h-0.574v-1.059h1.074v0.984C246.899,121.015,246.597,121.406,245.993,121.525z"/>
		<path style="fill:#FFFFFF;" d="M250.946,120.502c-0.523,0-0.9-0.147-1.129-0.441c-0.229-0.294-0.344-0.72-0.344-1.277v-1.34
			c0-0.557,0.115-0.982,0.344-1.273c0.229-0.291,0.605-0.438,1.129-0.438c0.492,0,0.85,0.116,1.072,0.348
			c0.223,0.232,0.334,0.591,0.334,1.078v0.375h-1.02v-0.395c0-0.234-0.028-0.398-0.084-0.49c-0.056-0.092-0.153-0.139-0.291-0.139
			c-0.154,0-0.257,0.055-0.31,0.164c-0.053,0.109-0.08,0.313-0.08,0.609v1.688c0,0.294,0.029,0.493,0.088,0.596
			c0.059,0.103,0.16,0.154,0.303,0.154c0.146,0,0.245-0.05,0.297-0.15c0.052-0.1,0.078-0.252,0.078-0.455v-0.496h1.02v0.438
			c0,0.479-0.114,0.84-0.342,1.082C251.783,120.381,251.428,120.502,250.946,120.502z"/>
		<path style="fill:#FFFFFF;" d="M254.462,120.502c-0.497,0-0.868-0.14-1.111-0.42c-0.244-0.28-0.365-0.68-0.365-1.201v-1.527
			c0-0.521,0.122-0.921,0.365-1.201c0.244-0.28,0.614-0.42,1.111-0.42c0.5,0,0.873,0.14,1.119,0.42
			c0.246,0.28,0.369,0.68,0.369,1.201v1.527c0,0.521-0.123,0.921-0.369,1.201C255.335,120.362,254.962,120.502,254.462,120.502z
			 M254.466,119.732c0.088,0,0.161-0.02,0.217-0.059c0.056-0.039,0.096-0.1,0.121-0.182s0.041-0.162,0.049-0.238
			c0.008-0.077,0.012-0.176,0.012-0.299v-1.676c0-0.096-0.002-0.176-0.006-0.24c-0.004-0.064-0.013-0.133-0.027-0.209
			c-0.014-0.076-0.036-0.135-0.064-0.178c-0.029-0.043-0.068-0.079-0.117-0.109s-0.111-0.045-0.184-0.045
			c-0.088,0-0.161,0.02-0.217,0.061c-0.056,0.04-0.096,0.102-0.121,0.184s-0.041,0.162-0.049,0.238
			c-0.008,0.077-0.012,0.176-0.012,0.299v1.676c0,0.096,0.002,0.176,0.006,0.24c0.004,0.064,0.013,0.133,0.027,0.207
			c0.014,0.074,0.036,0.133,0.064,0.176c0.029,0.043,0.068,0.08,0.117,0.109S254.393,119.732,254.466,119.732z"/>
		<path style="fill:#FFFFFF;" d="M256.7,120.428v-4.625h1.094v0.453c0.373-0.349,0.749-0.523,1.129-0.523
			c0.263,0,0.455,0.096,0.576,0.289s0.182,0.43,0.182,0.711v3.695h-1.094v-3.453c0-0.146-0.021-0.254-0.063-0.324
			c-0.042-0.07-0.123-0.104-0.242-0.102c-0.135,0.003-0.298,0.073-0.488,0.211v3.668H256.7z"/>
		<path style="fill:#FFFFFF;" d="M261.689,120.502c-0.383,0-0.697-0.107-0.941-0.32c-0.245-0.213-0.413-0.521-0.504-0.922
			l0.828-0.301c0.057,0.255,0.138,0.449,0.242,0.58c0.104,0.131,0.234,0.195,0.391,0.189c0.115-0.002,0.209-0.043,0.283-0.123
			c0.074-0.08,0.109-0.176,0.103-0.291c-0.01-0.167-0.163-0.376-0.457-0.629l-0.621-0.531c-0.448-0.385-0.667-0.788-0.656-1.207
			c0.008-0.37,0.133-0.665,0.377-0.885s0.554-0.33,0.932-0.33c0.362,0,0.656,0.109,0.883,0.328c0.227,0.219,0.373,0.512,0.441,0.879
			l-0.719,0.301c-0.099-0.479-0.284-0.72-0.555-0.723c-0.115-0.003-0.206,0.033-0.275,0.105c-0.069,0.073-0.103,0.16-0.103,0.262
			c-0.002,0.141,0.126,0.324,0.387,0.551l0.633,0.574c0.107,0.094,0.195,0.178,0.266,0.252c0.07,0.074,0.144,0.165,0.221,0.271
			c0.077,0.107,0.134,0.221,0.172,0.344c0.038,0.122,0.057,0.254,0.057,0.395c0,0.391-0.129,0.693-0.389,0.908
			C262.423,120.395,262.092,120.502,261.689,120.502z"/>
		<path style="fill:#FFFFFF;" d="M265.064,120.502c-0.529,0-0.909-0.146-1.141-0.438c-0.232-0.292-0.348-0.723-0.348-1.293v-1.309
			c0-0.57,0.117-1.001,0.352-1.293c0.234-0.291,0.612-0.438,1.133-0.438c0.276,0,0.508,0.041,0.697,0.121
			c0.189,0.081,0.336,0.203,0.441,0.367c0.105,0.164,0.18,0.354,0.225,0.568c0.044,0.215,0.066,0.473,0.066,0.775v0.605h-1.828
			v0.695c0,0.096,0,0.171,0.002,0.225c0.002,0.053,0.006,0.118,0.014,0.193c0.008,0.076,0.02,0.134,0.037,0.176
			c0.017,0.042,0.039,0.084,0.068,0.127c0.029,0.043,0.066,0.074,0.113,0.092c0.047,0.018,0.102,0.027,0.164,0.027
			c0.146,0,0.247-0.051,0.305-0.154c0.057-0.103,0.086-0.252,0.086-0.447v-0.266h1.035v0.184c0,0.479-0.119,0.846-0.358,1.1
			S265.535,120.502,265.064,120.502z M264.661,117.623h0.789v-0.441c0-0.234-0.029-0.402-0.088-0.504
			c-0.059-0.101-0.162-0.152-0.311-0.152c-0.151,0-0.254,0.057-0.309,0.172c-0.055,0.115-0.082,0.323-0.082,0.625V117.623z"/>
		<path style="fill:#FFFFFF;" d="M268.622,120.502c-0.523,0-0.9-0.147-1.129-0.441c-0.229-0.294-0.344-0.72-0.344-1.277v-1.34
			c0-0.557,0.115-0.982,0.344-1.273c0.229-0.291,0.605-0.438,1.129-0.438c0.492,0,0.85,0.116,1.072,0.348
			c0.223,0.232,0.334,0.591,0.334,1.078v0.375h-1.02v-0.395c0-0.234-0.028-0.398-0.084-0.49c-0.056-0.092-0.153-0.139-0.291-0.139
			c-0.154,0-0.257,0.055-0.311,0.164c-0.053,0.109-0.08,0.313-0.08,0.609v1.688c0,0.294,0.029,0.493,0.088,0.596
			c0.059,0.103,0.16,0.154,0.303,0.154c0.146,0,0.245-0.05,0.297-0.15c0.052-0.1,0.078-0.252,0.078-0.455v-0.496h1.02v0.438
			c0,0.479-0.114,0.84-0.342,1.082C269.458,120.381,269.104,120.502,268.622,120.502z"/>
		<path style="fill:#FFFFFF;" d="M272.036,120.49c-0.211-0.002-0.39-0.038-0.537-0.105c-0.147-0.068-0.26-0.165-0.34-0.291
			c-0.08-0.127-0.137-0.268-0.172-0.424c-0.035-0.156-0.053-0.338-0.053-0.547v-2.598h-0.457v-0.723h0.457v-1.359h1.098v1.359h0.703
			v0.723h-0.703v2.668c0,0.151,0.033,0.26,0.1,0.326s0.172,0.101,0.318,0.104c0.102,0.003,0.212-0.005,0.332-0.023v0.836
			C272.472,120.477,272.224,120.496,272.036,120.49z"/>
		<path style="fill:#FFFFFF;" d="M274.806,120.502c-0.529,0-0.909-0.146-1.141-0.438c-0.232-0.292-0.348-0.723-0.348-1.293v-1.309
			c0-0.57,0.117-1.001,0.352-1.293c0.234-0.291,0.612-0.438,1.133-0.438c0.276,0,0.508,0.041,0.697,0.121
			c0.189,0.081,0.336,0.203,0.441,0.367c0.105,0.164,0.18,0.354,0.225,0.568c0.044,0.215,0.066,0.473,0.066,0.775v0.605h-1.828
			v0.695c0,0.096,0.001,0.171,0.002,0.225c0.001,0.053,0.006,0.118,0.014,0.193c0.008,0.076,0.02,0.134,0.037,0.176
			c0.017,0.042,0.04,0.084,0.068,0.127c0.029,0.043,0.066,0.074,0.113,0.092c0.047,0.018,0.102,0.027,0.164,0.027
			c0.146,0,0.247-0.051,0.305-0.154c0.057-0.103,0.086-0.252,0.086-0.447v-0.266h1.035v0.184c0,0.479-0.119,0.846-0.357,1.1
			C275.632,120.375,275.277,120.502,274.806,120.502z M274.403,117.623h0.789v-0.441c0-0.234-0.029-0.402-0.088-0.504
			c-0.059-0.101-0.162-0.152-0.311-0.152c-0.151,0-0.254,0.057-0.309,0.172c-0.055,0.115-0.082,0.323-0.082,0.625V117.623z"/>
		<path style="fill:#FFFFFF;" d="M278.267,120.49c-0.211-0.002-0.39-0.038-0.537-0.105c-0.147-0.068-0.26-0.165-0.34-0.291
			c-0.079-0.127-0.137-0.268-0.172-0.424c-0.035-0.156-0.053-0.338-0.053-0.547v-2.598h-0.457v-0.723h0.457v-1.359h1.098v1.359
			h0.703v0.723h-0.703v2.668c0,0.151,0.033,0.26,0.1,0.326s0.172,0.101,0.318,0.104c0.102,0.003,0.212-0.005,0.332-0.023v0.836
			C278.703,120.477,278.454,120.496,278.267,120.49z"/>
		<path style="fill:#FFFFFF;" d="M280.36,120.498c-0.263,0-0.455-0.096-0.576-0.289c-0.121-0.193-0.182-0.43-0.182-0.711v-3.695
			h1.09v3.473c0,0.143,0.022,0.25,0.066,0.32c0.044,0.07,0.127,0.104,0.246,0.102c0.127,0,0.284-0.065,0.469-0.195v-3.699h1.09
			v4.625h-1.09v-0.434C281.106,120.33,280.735,120.498,280.36,120.498z"/>
		<path style="fill:#FFFFFF;" d="M283.423,120.428v-4.625h1.094v0.711c0.154-0.274,0.309-0.47,0.467-0.59
			c0.158-0.12,0.326-0.18,0.506-0.18c0.055,0,0.109,0.006,0.164,0.02v1.082c-0.122-0.047-0.249-0.07-0.379-0.07
			c-0.156,0.005-0.293,0.044-0.412,0.117c-0.119,0.073-0.234,0.194-0.346,0.363v3.172H283.423z"/>
		<path style="fill:#FFFFFF;" d="M162.216,129.431c-0.292-0.003-0.531-0.116-0.717-0.342c-0.186-0.226-0.279-0.48-0.279-0.764
			c0-0.269,0.045-0.503,0.133-0.703c0.088-0.2,0.234-0.372,0.436-0.516c0.202-0.144,0.369-0.247,0.502-0.313
			c0.133-0.065,0.337-0.151,0.613-0.258c0.078-0.031,0.137-0.055,0.176-0.07v-0.387c0-0.208-0.024-0.36-0.072-0.457
			c-0.048-0.097-0.146-0.145-0.295-0.145c-0.242,0-0.366,0.169-0.371,0.508l-0.016,0.289l-1.047-0.039c0-0.016,0-0.044,0.002-0.086
			c0.001-0.042,0.002-0.069,0.002-0.082c0.034-0.484,0.178-0.84,0.432-1.066c0.254-0.227,0.617-0.34,1.088-0.34
			c0.455,0,0.793,0.124,1.014,0.371s0.33,0.598,0.33,1.051v2.113c0,0.355,0.029,0.741,0.086,1.16h-0.988
			c-0.06-0.302-0.098-0.528-0.113-0.68c-0.065,0.214-0.174,0.393-0.326,0.537C162.651,129.359,162.456,129.431,162.216,129.431z
			 M162.634,128.583c0.083,0,0.166-0.031,0.248-0.094c0.082-0.063,0.148-0.126,0.197-0.191v-1.273c-0.542,0.3-0.813,0.64-0.813,1.02
			c0,0.167,0.032,0.298,0.096,0.395C162.426,128.536,162.517,128.583,162.634,128.583z"/>
		<path style="fill:#FFFFFF;" d="M165.997,129.431c-0.378,0-0.66-0.134-0.848-0.402c-0.188-0.268-0.281-0.694-0.281-1.277v-1.344
			c0-0.247,0.019-0.472,0.057-0.672c0.038-0.2,0.098-0.384,0.18-0.551c0.082-0.167,0.197-0.296,0.346-0.387
			c0.148-0.091,0.326-0.137,0.531-0.137c0.292,0,0.565,0.118,0.82,0.355v-2.137h1.094v6.477h-1.094v-0.316
			C166.554,129.298,166.286,129.428,165.997,129.431z M166.38,128.65c0.133,0,0.273-0.042,0.422-0.125v-2.953
			c-0.148-0.094-0.291-0.141-0.426-0.141c-0.146,0-0.251,0.066-0.315,0.199c-0.064,0.133-0.096,0.302-0.096,0.508v1.695
			c0,0.167,0.009,0.305,0.027,0.414c0.018,0.109,0.059,0.204,0.123,0.283C166.18,128.61,166.268,128.65,166.38,128.65z"/>
		<path style="fill:#FFFFFF;" d="M168.767,124.002v-0.922h1.098v0.922H168.767z M168.767,129.357v-4.625h1.094v4.625H168.767z"/>
		<path style="fill:#FFFFFF;" d="M170.72,130.88v-6.148h1.094v0.355c0.287-0.286,0.598-0.429,0.934-0.426
			c0.164,0.003,0.309,0.04,0.436,0.113c0.126,0.073,0.225,0.163,0.297,0.271c0.072,0.108,0.13,0.235,0.176,0.383
			c0.045,0.147,0.076,0.284,0.092,0.41c0.016,0.126,0.023,0.255,0.023,0.385v1.516c0,0.234-0.019,0.45-0.059,0.646
			c-0.039,0.196-0.1,0.375-0.184,0.535c-0.084,0.16-0.197,0.285-0.342,0.375c-0.144,0.09-0.314,0.135-0.51,0.135
			c-0.287,0-0.574-0.14-0.863-0.418v1.867H170.72z M172.294,128.646c0.081,0,0.148-0.022,0.203-0.068
			c0.055-0.046,0.094-0.112,0.119-0.199s0.042-0.177,0.051-0.27c0.009-0.093,0.014-0.204,0.014-0.334v-1.594
			c0-0.106-0.006-0.202-0.018-0.287c-0.012-0.085-0.032-0.165-0.061-0.242c-0.029-0.077-0.072-0.136-0.129-0.176
			c-0.057-0.04-0.126-0.06-0.207-0.057c-0.143,0.003-0.294,0.063-0.453,0.184v2.898C171.97,128.598,172.13,128.646,172.294,128.646z
			"/>
		<path style="fill:#FFFFFF;" d="M174.567,124.002v-0.922h1.098v0.922H174.567z M174.567,129.357v-4.625h1.094v4.625H174.567z"/>
		<path style="fill:#FFFFFF;" d="M177.72,129.431c-0.383,0-0.697-0.106-0.941-0.32c-0.245-0.214-0.413-0.52-0.504-0.922l0.828-0.301
			c0.057,0.255,0.138,0.448,0.242,0.58c0.104,0.132,0.234,0.194,0.391,0.189c0.115-0.003,0.209-0.044,0.283-0.123
			c0.074-0.079,0.109-0.177,0.104-0.291c-0.01-0.167-0.163-0.376-0.457-0.629l-0.621-0.531c-0.448-0.386-0.667-0.788-0.656-1.207
			c0.008-0.37,0.133-0.665,0.377-0.885c0.244-0.22,0.554-0.33,0.932-0.33c0.362,0,0.656,0.109,0.883,0.328
			c0.227,0.219,0.374,0.512,0.441,0.879l-0.719,0.301c-0.099-0.479-0.284-0.72-0.555-0.723c-0.115-0.003-0.207,0.032-0.275,0.105
			c-0.069,0.073-0.104,0.16-0.104,0.262c-0.002,0.141,0.126,0.324,0.387,0.551l0.633,0.574c0.107,0.094,0.195,0.178,0.266,0.252
			c0.07,0.074,0.144,0.165,0.221,0.271c0.077,0.106,0.134,0.222,0.172,0.344c0.038,0.122,0.057,0.254,0.057,0.395
			c0,0.391-0.129,0.693-0.389,0.908C178.455,129.324,178.124,129.431,177.72,129.431z"/>
		<path style="fill:#FFFFFF;" d="M181.079,129.431c-0.523,0-0.9-0.147-1.129-0.441c-0.229-0.294-0.344-0.72-0.344-1.277v-1.34
			c0-0.558,0.115-0.981,0.344-1.273c0.229-0.292,0.605-0.438,1.129-0.438c0.492,0,0.85,0.116,1.072,0.348
			c0.223,0.231,0.334,0.591,0.334,1.078v0.375h-1.02v-0.395c0-0.234-0.028-0.397-0.084-0.49c-0.056-0.093-0.153-0.139-0.291-0.139
			c-0.154,0-0.257,0.055-0.311,0.164c-0.053,0.109-0.08,0.313-0.08,0.609v1.688c0,0.294,0.029,0.493,0.088,0.596
			c0.059,0.102,0.16,0.154,0.303,0.154c0.146,0,0.245-0.05,0.297-0.15c0.052-0.101,0.078-0.252,0.078-0.455v-0.496h1.02v0.438
			c0,0.479-0.114,0.84-0.342,1.082C181.915,129.31,181.561,129.431,181.079,129.431z"/>
		<path style="fill:#FFFFFF;" d="M183.239,124.002v-0.922h1.098v0.922H183.239z M183.239,129.357v-4.625h1.094v4.625H183.239z"/>
		<path style="fill:#FFFFFF;" d="M185.192,129.357v-4.625h1.094v0.453c0.373-0.349,0.749-0.523,1.129-0.523
			c0.263,0,0.455,0.097,0.576,0.289c0.121,0.192,0.182,0.43,0.182,0.711v3.695h-1.094v-3.453c0-0.146-0.021-0.254-0.063-0.324
			c-0.042-0.07-0.123-0.104-0.242-0.102c-0.135,0.003-0.298,0.073-0.488,0.211v3.668H185.192z"/>
		<path style="fill:#FFFFFF;" d="M190.579,130.759c-0.138,0-0.258-0.001-0.361-0.004c-0.103-0.003-0.222-0.01-0.357-0.021
			c-0.135-0.012-0.252-0.028-0.35-0.051c-0.098-0.023-0.198-0.053-0.301-0.092c-0.103-0.039-0.186-0.085-0.25-0.139
			c-0.064-0.054-0.117-0.121-0.158-0.203s-0.063-0.174-0.063-0.275c0-0.388,0.217-0.715,0.652-0.98
			c-0.313-0.106-0.478-0.28-0.496-0.52c-0.013-0.167,0.022-0.311,0.106-0.432c0.083-0.121,0.225-0.264,0.426-0.428
			c-0.172-0.13-0.301-0.293-0.387-0.488c-0.086-0.195-0.129-0.457-0.129-0.785c0-0.567,0.123-0.989,0.369-1.266
			c0.246-0.276,0.602-0.414,1.068-0.414c0.479,0,0.81,0.151,0.992,0.453c0.057-0.07,0.144-0.153,0.26-0.25
			c0.116-0.097,0.238-0.176,0.365-0.238l0.152-0.07l0.258,0.609c-0.091,0.024-0.229,0.07-0.414,0.141
			c-0.185,0.07-0.309,0.125-0.371,0.164c0.049,0.091,0.092,0.22,0.129,0.385c0.037,0.165,0.055,0.331,0.055,0.498
			c0,1.058-0.462,1.586-1.387,1.586c-0.076,0-0.179-0.011-0.311-0.033c-0.131-0.022-0.217-0.041-0.256-0.057
			c-0.088,0.133-0.13,0.234-0.125,0.305c0.008,0.105,0.143,0.169,0.406,0.195c0.031,0.005,0.17,0.02,0.414,0.045
			c0.245,0.025,0.388,0.04,0.43,0.045c0.388,0.042,0.672,0.154,0.852,0.338c0.18,0.184,0.27,0.446,0.27,0.787
			c0,0.409-0.115,0.71-0.344,0.904C191.495,130.663,191.113,130.759,190.579,130.759z M190.571,129.99
			c0.224,0,0.387-0.028,0.49-0.086c0.103-0.058,0.156-0.149,0.158-0.277c0.008-0.138-0.027-0.239-0.105-0.303
			c-0.078-0.063-0.22-0.105-0.426-0.123l-0.734-0.07c-0.159,0.184-0.238,0.355-0.238,0.512c0,0.083,0.02,0.148,0.061,0.195
			c0.04,0.047,0.124,0.084,0.25,0.111C190.153,129.976,190.335,129.99,190.571,129.99z M190.36,127.232
			c0.182,0,0.301-0.067,0.355-0.203c0.055-0.136,0.082-0.375,0.082-0.719c0-0.354-0.026-0.601-0.078-0.738
			c-0.052-0.138-0.169-0.207-0.352-0.207c-0.185,0-0.305,0.069-0.359,0.209c-0.055,0.14-0.082,0.385-0.082,0.736
			c0,0.125,0.002,0.231,0.008,0.318c0.005,0.087,0.017,0.171,0.035,0.252c0.018,0.081,0.043,0.146,0.074,0.193
			c0.031,0.048,0.073,0.087,0.125,0.115C190.221,127.217,190.285,127.232,190.36,127.232z"/>
		<path style="fill:#FFFFFF;" d="M196.048,129.431c-0.529,0-0.909-0.146-1.141-0.438c-0.232-0.292-0.348-0.723-0.348-1.293v-1.309
			c0-0.57,0.117-1.001,0.352-1.293c0.234-0.292,0.612-0.438,1.133-0.438c0.276,0,0.508,0.04,0.697,0.121
			c0.189,0.081,0.336,0.203,0.441,0.367s0.18,0.354,0.225,0.568c0.045,0.215,0.066,0.474,0.066,0.775v0.605h-1.828v0.695
			c0,0.097,0.001,0.171,0.002,0.225c0.001,0.054,0.006,0.118,0.014,0.193s0.02,0.134,0.037,0.176
			c0.017,0.042,0.04,0.084,0.068,0.127c0.029,0.043,0.066,0.073,0.113,0.092c0.047,0.019,0.102,0.027,0.164,0.027
			c0.146,0,0.248-0.052,0.305-0.154c0.057-0.103,0.086-0.252,0.086-0.447v-0.266h1.035v0.184c0,0.48-0.119,0.846-0.357,1.1
			C196.874,129.304,196.519,129.431,196.048,129.431z M195.645,126.552h0.789v-0.441c0-0.234-0.029-0.402-0.088-0.504
			c-0.059-0.102-0.162-0.152-0.311-0.152c-0.151,0-0.254,0.058-0.309,0.172c-0.055,0.114-0.082,0.323-0.082,0.625V126.552z"/>
		<path style="fill:#FFFFFF;" d="M198.29,129.357v-6.477h1.094v6.477H198.29z"/>
		<path style="fill:#FFFFFF;" d="M200.278,124.002v-0.922h1.098v0.922H200.278z M200.278,129.357v-4.625h1.094v4.625H200.278z"/>
		<path style="fill:#FFFFFF;" d="M203.52,129.419c-0.211-0.003-0.39-0.038-0.537-0.105c-0.147-0.067-0.26-0.165-0.34-0.291
			c-0.08-0.126-0.137-0.268-0.172-0.424c-0.035-0.156-0.053-0.339-0.053-0.547v-2.598h-0.457v-0.723h0.457v-1.359h1.098v1.359h0.703
			v0.723h-0.703v2.668c0,0.151,0.033,0.26,0.1,0.326c0.066,0.066,0.172,0.101,0.318,0.104c0.102,0.003,0.212-0.005,0.332-0.023
			v0.836C203.956,129.407,203.708,129.424,203.52,129.419z"/>
		<path style="fill:#FFFFFF;" d="M204.954,130.455l-0.117-0.41c0.154-0.039,0.279-0.118,0.377-0.236
			c0.098-0.118,0.146-0.269,0.146-0.451h-0.574v-1.059h1.074v0.984C205.86,129.944,205.558,130.335,204.954,130.455z"/>
		<path style="fill:#FFFFFF;" d="M209.72,129.431c-0.383,0-0.697-0.106-0.941-0.32c-0.245-0.214-0.413-0.52-0.504-0.922l0.828-0.301
			c0.057,0.255,0.138,0.448,0.242,0.58c0.104,0.132,0.234,0.194,0.391,0.189c0.115-0.003,0.209-0.044,0.283-0.123
			c0.074-0.079,0.109-0.177,0.104-0.291c-0.01-0.167-0.163-0.376-0.457-0.629l-0.621-0.531c-0.448-0.386-0.667-0.788-0.656-1.207
			c0.008-0.37,0.133-0.665,0.377-0.885c0.244-0.22,0.554-0.33,0.932-0.33c0.362,0,0.656,0.109,0.883,0.328
			c0.227,0.219,0.374,0.512,0.441,0.879l-0.719,0.301c-0.099-0.479-0.284-0.72-0.555-0.723c-0.115-0.003-0.207,0.032-0.275,0.105
			c-0.069,0.073-0.104,0.16-0.104,0.262c-0.002,0.141,0.126,0.324,0.387,0.551l0.633,0.574c0.107,0.094,0.195,0.178,0.266,0.252
			c0.07,0.074,0.144,0.165,0.221,0.271c0.077,0.106,0.134,0.222,0.172,0.344c0.038,0.122,0.057,0.254,0.057,0.395
			c0,0.391-0.129,0.693-0.389,0.908C210.455,129.324,210.124,129.431,209.72,129.431z"/>
		<path style="fill:#FFFFFF;" d="M213.095,129.431c-0.529,0-0.909-0.146-1.141-0.438c-0.232-0.292-0.348-0.723-0.348-1.293v-1.309
			c0-0.57,0.117-1.001,0.352-1.293c0.234-0.292,0.612-0.438,1.133-0.438c0.276,0,0.508,0.04,0.697,0.121
			c0.189,0.081,0.336,0.203,0.441,0.367c0.105,0.164,0.18,0.354,0.225,0.568c0.044,0.215,0.066,0.474,0.066,0.775v0.605h-1.828
			v0.695c0,0.097,0.001,0.171,0.002,0.225c0.001,0.054,0.006,0.118,0.014,0.193c0.008,0.075,0.02,0.134,0.037,0.176
			c0.017,0.042,0.04,0.084,0.068,0.127c0.029,0.043,0.066,0.073,0.113,0.092c0.047,0.019,0.102,0.027,0.164,0.027
			c0.146,0,0.248-0.052,0.305-0.154c0.057-0.103,0.086-0.252,0.086-0.447v-0.266h1.035v0.184c0,0.48-0.119,0.846-0.357,1.1
			C213.921,129.304,213.566,129.431,213.095,129.431z M212.692,126.552h0.789v-0.441c0-0.234-0.029-0.402-0.088-0.504
			c-0.059-0.102-0.162-0.152-0.311-0.152c-0.151,0-0.254,0.058-0.309,0.172c-0.055,0.114-0.082,0.323-0.082,0.625V126.552z"/>
		<path style="fill:#FFFFFF;" d="M216.317,129.431c-0.378,0-0.66-0.134-0.848-0.402c-0.188-0.268-0.281-0.694-0.281-1.277v-1.344
			c0-0.247,0.019-0.472,0.057-0.672c0.038-0.2,0.098-0.384,0.18-0.551s0.197-0.296,0.346-0.387c0.148-0.091,0.326-0.137,0.531-0.137
			c0.292,0,0.565,0.118,0.82,0.355v-2.137h1.094v6.477h-1.094v-0.316C216.874,129.298,216.606,129.428,216.317,129.431z
			 M216.7,128.65c0.133,0,0.273-0.042,0.422-0.125v-2.953c-0.148-0.094-0.291-0.141-0.426-0.141c-0.146,0-0.251,0.066-0.314,0.199
			c-0.064,0.133-0.096,0.302-0.096,0.508v1.695c0,0.167,0.009,0.305,0.027,0.414c0.018,0.109,0.059,0.204,0.123,0.283
			C216.501,128.61,216.588,128.65,216.7,128.65z"/>
		<path style="fill:#FFFFFF;" d="M222.056,129.431c-0.377,0-0.66-0.134-0.848-0.402c-0.188-0.268-0.281-0.694-0.281-1.277v-1.344
			c0-0.247,0.019-0.472,0.057-0.672c0.038-0.2,0.098-0.384,0.18-0.551s0.197-0.296,0.346-0.387c0.148-0.091,0.326-0.137,0.531-0.137
			c0.292,0,0.565,0.118,0.82,0.355v-2.137h1.094v6.477h-1.094v-0.316C222.613,129.298,222.345,129.428,222.056,129.431z
			 M222.439,128.65c0.133,0,0.273-0.042,0.422-0.125v-2.953c-0.148-0.094-0.291-0.141-0.426-0.141c-0.146,0-0.251,0.066-0.314,0.199
			c-0.064,0.133-0.096,0.302-0.096,0.508v1.695c0,0.167,0.009,0.305,0.027,0.414c0.018,0.109,0.059,0.204,0.123,0.283
			C222.239,128.61,222.327,128.65,222.439,128.65z"/>
		<path style="fill:#FFFFFF;" d="M226.181,129.431c-0.498,0-0.868-0.14-1.111-0.42c-0.244-0.28-0.365-0.681-0.365-1.201v-1.527
			c0-0.521,0.122-0.921,0.365-1.201c0.244-0.28,0.614-0.42,1.111-0.42c0.5,0,0.873,0.14,1.119,0.42
			c0.246,0.28,0.369,0.681,0.369,1.201v1.527c0,0.521-0.123,0.921-0.369,1.201C227.054,129.292,226.681,129.431,226.181,129.431z
			 M226.185,128.662c0.088,0,0.161-0.02,0.217-0.059c0.056-0.039,0.096-0.1,0.121-0.182c0.025-0.082,0.041-0.161,0.049-0.238
			c0.008-0.077,0.012-0.177,0.012-0.299v-1.676c0-0.097-0.002-0.177-0.006-0.24c-0.004-0.063-0.013-0.134-0.027-0.209
			c-0.014-0.075-0.036-0.135-0.064-0.178c-0.029-0.043-0.068-0.079-0.117-0.109c-0.049-0.03-0.111-0.045-0.184-0.045
			c-0.088,0-0.161,0.021-0.217,0.061c-0.056,0.04-0.096,0.102-0.121,0.184s-0.041,0.161-0.049,0.238
			c-0.008,0.077-0.012,0.177-0.012,0.299v1.676c0,0.097,0.002,0.177,0.006,0.24c0.004,0.064,0.013,0.133,0.027,0.207
			c0.014,0.074,0.036,0.133,0.064,0.176c0.029,0.043,0.068,0.079,0.117,0.109C226.05,128.647,226.112,128.662,226.185,128.662z"/>
		<path style="fill:#FFFFFF;" d="M231.774,129.431c-0.529,0-0.909-0.146-1.141-0.438c-0.232-0.292-0.348-0.723-0.348-1.293v-1.309
			c0-0.57,0.117-1.001,0.352-1.293c0.234-0.292,0.612-0.438,1.133-0.438c0.276,0,0.508,0.04,0.697,0.121
			c0.189,0.081,0.336,0.203,0.441,0.367c0.105,0.164,0.18,0.354,0.225,0.568c0.044,0.215,0.066,0.474,0.066,0.775v0.605h-1.828
			v0.695c0,0.097,0.001,0.171,0.002,0.225c0.002,0.054,0.006,0.118,0.014,0.193s0.02,0.134,0.037,0.176
			c0.017,0.042,0.04,0.084,0.068,0.127c0.029,0.043,0.066,0.073,0.113,0.092c0.047,0.019,0.102,0.027,0.164,0.027
			c0.146,0,0.248-0.052,0.305-0.154c0.057-0.103,0.086-0.252,0.086-0.447v-0.266h1.035v0.184c0,0.48-0.119,0.846-0.357,1.1
			C232.601,129.304,232.246,129.431,231.774,129.431z M231.372,126.552h0.789v-0.441c0-0.234-0.029-0.402-0.088-0.504
			c-0.059-0.102-0.162-0.152-0.311-0.152c-0.151,0-0.254,0.058-0.309,0.172c-0.055,0.114-0.082,0.323-0.082,0.625V126.552z"/>
		<path style="fill:#FFFFFF;" d="M233.981,124.002v-0.922h1.098v0.922H233.981z M233.981,129.357v-4.625h1.094v4.625H233.981z"/>
		<path style="fill:#FFFFFF;" d="M236.661,129.427c-0.263,0-0.455-0.097-0.576-0.289c-0.121-0.192-0.182-0.43-0.182-0.711v-3.695
			h1.09v3.473c0,0.143,0.022,0.25,0.066,0.32c0.044,0.07,0.126,0.104,0.246,0.102c0.127,0,0.284-0.065,0.469-0.195v-3.699h1.09
			v4.625h-1.09v-0.434C237.407,129.259,237.036,129.427,236.661,129.427z"/>
		<path style="fill:#FFFFFF;" d="M240.907,129.431c-0.383,0-0.697-0.106-0.941-0.32c-0.245-0.214-0.413-0.52-0.504-0.922
			l0.828-0.301c0.057,0.255,0.138,0.448,0.242,0.58c0.104,0.132,0.234,0.194,0.391,0.189c0.115-0.003,0.209-0.044,0.283-0.123
			c0.074-0.079,0.109-0.177,0.104-0.291c-0.01-0.167-0.163-0.376-0.457-0.629l-0.621-0.531c-0.448-0.386-0.667-0.788-0.656-1.207
			c0.008-0.37,0.133-0.665,0.377-0.885c0.244-0.22,0.554-0.33,0.932-0.33c0.362,0,0.656,0.109,0.883,0.328
			c0.227,0.219,0.374,0.512,0.441,0.879l-0.719,0.301c-0.099-0.479-0.284-0.72-0.555-0.723c-0.115-0.003-0.207,0.032-0.275,0.105
			c-0.069,0.073-0.104,0.16-0.104,0.262c-0.002,0.141,0.126,0.324,0.387,0.551l0.633,0.574c0.107,0.094,0.195,0.178,0.266,0.252
			c0.07,0.074,0.144,0.165,0.221,0.271c0.077,0.106,0.134,0.222,0.172,0.344c0.038,0.122,0.057,0.254,0.057,0.395
			c0,0.391-0.129,0.693-0.389,0.908C241.642,129.324,241.311,129.431,240.907,129.431z"/>
		<path style="fill:#FFFFFF;" d="M242.88,129.357v-4.625h1.039v0.406c0.31-0.325,0.676-0.488,1.098-0.488
			c0.385,0,0.642,0.188,0.77,0.566c0.326-0.378,0.715-0.566,1.168-0.566c0.258,0,0.465,0.094,0.621,0.281
			c0.156,0.188,0.234,0.46,0.234,0.816v3.609h-1.039v-3.516c0-0.169-0.028-0.289-0.084-0.359c-0.056-0.07-0.139-0.104-0.248-0.102
			c-0.19,0.005-0.381,0.095-0.574,0.27c0,0.011,0,0.026,0.002,0.047c0.002,0.021,0.002,0.038,0.002,0.051v3.609h-1.035v-3.516
			c0-0.169-0.028-0.289-0.084-0.359c-0.056-0.07-0.14-0.104-0.252-0.102c-0.182,0.005-0.375,0.097-0.578,0.273v3.703H242.88z"/>
		<path style="fill:#FFFFFF;" d="M250.009,129.431c-0.498,0-0.868-0.14-1.111-0.42c-0.244-0.28-0.365-0.681-0.365-1.201v-1.527
			c0-0.521,0.122-0.921,0.365-1.201c0.244-0.28,0.614-0.42,1.111-0.42c0.5,0,0.873,0.14,1.119,0.42
			c0.246,0.28,0.369,0.681,0.369,1.201v1.527c0,0.521-0.123,0.921-0.369,1.201C250.882,129.292,250.509,129.431,250.009,129.431z
			 M250.013,128.662c0.088,0,0.161-0.02,0.217-0.059c0.056-0.039,0.096-0.1,0.121-0.182s0.041-0.161,0.049-0.238
			c0.008-0.077,0.012-0.177,0.012-0.299v-1.676c0-0.097-0.002-0.177-0.006-0.24c-0.004-0.063-0.013-0.134-0.027-0.209
			c-0.014-0.075-0.036-0.135-0.064-0.178c-0.029-0.043-0.068-0.079-0.117-0.109c-0.049-0.03-0.111-0.045-0.184-0.045
			c-0.088,0-0.161,0.021-0.217,0.061s-0.096,0.102-0.121,0.184s-0.041,0.161-0.049,0.238c-0.008,0.077-0.012,0.177-0.012,0.299
			v1.676c0,0.097,0.002,0.177,0.006,0.24c0.004,0.064,0.013,0.133,0.027,0.207c0.014,0.074,0.036,0.133,0.064,0.176
			c0.029,0.043,0.068,0.079,0.117,0.109S249.94,128.662,250.013,128.662z"/>
		<path style="fill:#FFFFFF;" d="M253.298,129.431c-0.378,0-0.66-0.134-0.848-0.402c-0.188-0.268-0.281-0.694-0.281-1.277v-1.344
			c0-0.247,0.019-0.472,0.057-0.672c0.038-0.2,0.098-0.384,0.18-0.551c0.082-0.167,0.197-0.296,0.346-0.387
			c0.148-0.091,0.326-0.137,0.531-0.137c0.292,0,0.565,0.118,0.82,0.355v-2.137h1.094v6.477h-1.094v-0.316
			C253.855,129.298,253.587,129.428,253.298,129.431z M253.681,128.65c0.133,0,0.273-0.042,0.422-0.125v-2.953
			c-0.148-0.094-0.29-0.141-0.426-0.141c-0.146,0-0.251,0.066-0.314,0.199c-0.064,0.133-0.096,0.302-0.096,0.508v1.695
			c0,0.167,0.009,0.305,0.027,0.414c0.018,0.109,0.059,0.204,0.123,0.283C253.481,128.61,253.569,128.65,253.681,128.65z"/>
		<path style="fill:#FFFFFF;" d="M162.614,138.349c-0.211-0.003-0.39-0.038-0.537-0.105c-0.147-0.067-0.26-0.165-0.34-0.291
			c-0.08-0.126-0.137-0.268-0.172-0.424c-0.035-0.156-0.053-0.339-0.053-0.547v-2.598h-0.457v-0.723h0.457v-1.359h1.098v1.359h0.703
			v0.723h-0.703v2.668c0,0.151,0.033,0.26,0.1,0.326c0.066,0.066,0.172,0.101,0.318,0.104c0.102,0.003,0.212-0.005,0.332-0.023
			v0.836C163.05,138.336,162.802,138.354,162.614,138.349z"/>
		<path style="fill:#FFFFFF;" d="M165.384,138.361c-0.529,0-0.909-0.145-1.141-0.438c-0.232-0.292-0.348-0.723-0.348-1.293v-1.309
			c0-0.57,0.117-1.001,0.352-1.293c0.234-0.292,0.612-0.438,1.133-0.438c0.276,0,0.508,0.04,0.697,0.121
			c0.189,0.081,0.336,0.203,0.441,0.367c0.105,0.164,0.18,0.354,0.225,0.568c0.044,0.215,0.066,0.474,0.066,0.775v0.605h-1.828
			v0.695c0,0.097,0.001,0.171,0.002,0.225s0.006,0.118,0.014,0.193c0.008,0.075,0.02,0.134,0.037,0.176
			c0.017,0.042,0.04,0.084,0.068,0.127c0.029,0.043,0.066,0.073,0.113,0.092c0.047,0.019,0.102,0.027,0.164,0.027
			c0.146,0,0.247-0.052,0.305-0.154c0.057-0.103,0.086-0.252,0.086-0.447v-0.266h1.035v0.184c0,0.479-0.119,0.846-0.357,1.1
			C166.21,138.234,165.855,138.361,165.384,138.361z M164.981,135.482h0.789v-0.441c0-0.234-0.029-0.402-0.088-0.504
			c-0.059-0.102-0.162-0.152-0.311-0.152c-0.151,0-0.254,0.058-0.309,0.172c-0.055,0.114-0.082,0.323-0.082,0.625V135.482z"/>
		<path style="fill:#FFFFFF;" d="M167.556,138.287v-4.625h1.039v0.406c0.31-0.325,0.676-0.488,1.098-0.488
			c0.385,0,0.642,0.188,0.77,0.566c0.326-0.378,0.715-0.566,1.168-0.566c0.258,0,0.465,0.094,0.621,0.281
			c0.156,0.188,0.234,0.46,0.234,0.816v3.609h-1.039v-3.516c0-0.169-0.028-0.289-0.084-0.359c-0.056-0.07-0.139-0.105-0.248-0.102
			c-0.19,0.005-0.381,0.095-0.574,0.27c0,0.011,0.001,0.026,0.002,0.047c0.001,0.021,0.002,0.038,0.002,0.051v3.609h-1.035v-3.516
			c0-0.169-0.028-0.289-0.084-0.359c-0.056-0.07-0.14-0.105-0.252-0.102c-0.182,0.005-0.375,0.097-0.578,0.273v3.703H167.556z"/>
		<path style="fill:#FFFFFF;" d="M173.294,139.81v-6.148h1.094v0.355c0.287-0.286,0.598-0.429,0.934-0.426
			c0.164,0.003,0.309,0.04,0.436,0.113c0.126,0.073,0.225,0.163,0.297,0.271c0.072,0.108,0.13,0.235,0.176,0.383
			c0.045,0.147,0.076,0.284,0.092,0.41c0.016,0.126,0.023,0.255,0.023,0.385v1.516c0,0.234-0.02,0.45-0.059,0.646
			c-0.039,0.196-0.1,0.375-0.184,0.535c-0.083,0.16-0.197,0.285-0.342,0.375c-0.145,0.09-0.314,0.135-0.51,0.135
			c-0.287,0-0.574-0.14-0.863-0.418v1.867H173.294z M174.868,137.576c0.081,0,0.148-0.022,0.203-0.068
			c0.055-0.046,0.094-0.112,0.119-0.199s0.042-0.177,0.051-0.27c0.009-0.093,0.014-0.204,0.014-0.334v-1.594
			c0-0.106-0.006-0.202-0.018-0.287c-0.012-0.085-0.032-0.165-0.061-0.242c-0.029-0.077-0.072-0.136-0.129-0.176
			c-0.057-0.04-0.126-0.06-0.207-0.057c-0.143,0.003-0.294,0.063-0.453,0.184v2.898
			C174.544,137.528,174.704,137.576,174.868,137.576z"/>
		<path style="fill:#FFFFFF;" d="M178.497,138.361c-0.498,0-0.868-0.14-1.111-0.42c-0.244-0.28-0.365-0.681-0.365-1.201v-1.527
			c0-0.521,0.122-0.921,0.365-1.201c0.244-0.28,0.614-0.42,1.111-0.42c0.5,0,0.873,0.14,1.119,0.42
			c0.246,0.28,0.369,0.681,0.369,1.201v1.527c0,0.521-0.123,0.921-0.369,1.201C179.37,138.221,178.997,138.361,178.497,138.361z
			 M178.501,137.591c0.088,0,0.161-0.02,0.217-0.059c0.056-0.039,0.096-0.1,0.121-0.182c0.025-0.082,0.041-0.161,0.049-0.238
			c0.008-0.077,0.012-0.177,0.012-0.299v-1.676c0-0.097-0.002-0.177-0.006-0.24c-0.004-0.063-0.013-0.134-0.027-0.209
			c-0.014-0.075-0.036-0.135-0.064-0.178c-0.029-0.043-0.068-0.079-0.117-0.109c-0.049-0.03-0.111-0.045-0.184-0.045
			c-0.088,0-0.161,0.02-0.217,0.061c-0.056,0.04-0.096,0.102-0.121,0.184c-0.025,0.082-0.041,0.161-0.049,0.238
			c-0.008,0.077-0.012,0.177-0.012,0.299v1.676c0,0.097,0.002,0.177,0.006,0.24c0.004,0.064,0.013,0.133,0.027,0.207
			c0.014,0.074,0.036,0.133,0.064,0.176c0.029,0.043,0.068,0.079,0.117,0.109S178.428,137.591,178.501,137.591z"/>
		<path style="fill:#FFFFFF;" d="M180.751,138.287v-4.625h1.094v0.711c0.154-0.273,0.309-0.47,0.467-0.59s0.326-0.18,0.506-0.18
			c0.055,0,0.109,0.007,0.164,0.02v1.082c-0.122-0.047-0.249-0.07-0.379-0.07c-0.156,0.005-0.293,0.044-0.412,0.117
			c-0.119,0.073-0.234,0.194-0.346,0.363v3.172H180.751z"/>
		<path style="fill:#FFFFFF;" d="M185.497,132.931v-0.922h1.098v0.922H185.497z M185.497,138.287v-4.625h1.094v4.625H185.497z"/>
		<path style="fill:#FFFFFF;" d="M187.45,138.287v-4.625h1.094v0.453c0.373-0.349,0.749-0.523,1.129-0.523
			c0.263,0,0.455,0.097,0.576,0.289c0.121,0.192,0.182,0.43,0.182,0.711v3.695h-1.094v-3.453c0-0.145-0.021-0.254-0.063-0.324
			c-0.042-0.07-0.122-0.104-0.242-0.102c-0.135,0.003-0.298,0.073-0.488,0.211v3.668H187.45z"/>
		<path style="fill:#FFFFFF;" d="M192.626,138.361c-0.524,0-0.9-0.147-1.129-0.441c-0.229-0.294-0.344-0.72-0.344-1.277v-1.34
			c0-0.558,0.115-0.981,0.344-1.273c0.229-0.292,0.605-0.438,1.129-0.438c0.492,0,0.85,0.116,1.072,0.348
			c0.223,0.231,0.334,0.591,0.334,1.078v0.375h-1.02v-0.395c0-0.234-0.028-0.398-0.084-0.49c-0.056-0.093-0.153-0.139-0.291-0.139
			c-0.154,0-0.257,0.055-0.311,0.164c-0.053,0.109-0.08,0.313-0.08,0.609v1.688c0,0.294,0.029,0.493,0.088,0.596
			c0.059,0.103,0.16,0.154,0.303,0.154c0.146,0,0.245-0.05,0.297-0.15c0.052-0.101,0.078-0.252,0.078-0.455v-0.496h1.02v0.438
			c0,0.48-0.114,0.84-0.342,1.082C193.462,138.24,193.108,138.361,192.626,138.361z"/>
		<path style="fill:#FFFFFF;" d="M194.786,132.931v-0.922h1.098v0.922H194.786z M194.786,138.287v-4.625h1.094v4.625H194.786z"/>
		<path style="fill:#FFFFFF;" d="M197.79,138.361c-0.377,0-0.66-0.134-0.848-0.402s-0.281-0.694-0.281-1.277v-1.344
			c0-0.247,0.019-0.472,0.057-0.672c0.038-0.2,0.098-0.384,0.18-0.551c0.082-0.167,0.197-0.296,0.346-0.387
			c0.148-0.091,0.326-0.137,0.531-0.137c0.292,0,0.565,0.118,0.82,0.355v-2.137h1.094v6.477h-1.094v-0.316
			C198.347,138.228,198.079,138.358,197.79,138.361z M198.173,137.58c0.133,0,0.273-0.042,0.422-0.125v-2.953
			c-0.148-0.094-0.29-0.141-0.426-0.141c-0.146,0-0.25,0.066-0.314,0.199c-0.064,0.133-0.096,0.302-0.096,0.508v1.695
			c0,0.167,0.009,0.305,0.027,0.414c0.018,0.109,0.059,0.204,0.123,0.283C197.973,137.54,198.061,137.58,198.173,137.58z"/>
		<path style="fill:#FFFFFF;" d="M200.56,132.931v-0.922h1.098v0.922H200.56z M200.56,138.287v-4.625h1.094v4.625H200.56z"/>
		<path style="fill:#FFFFFF;" d="M203.564,138.361c-0.378,0-0.66-0.134-0.848-0.402s-0.281-0.694-0.281-1.277v-1.344
			c0-0.247,0.019-0.472,0.057-0.672c0.038-0.2,0.098-0.384,0.18-0.551c0.082-0.167,0.197-0.296,0.346-0.387
			c0.148-0.091,0.326-0.137,0.531-0.137c0.292,0,0.565,0.118,0.82,0.355v-2.137h1.094v6.477h-1.094v-0.316
			C204.121,138.228,203.852,138.358,203.564,138.361z M203.946,137.58c0.133,0,0.273-0.042,0.422-0.125v-2.953
			c-0.148-0.094-0.291-0.141-0.426-0.141c-0.146,0-0.251,0.066-0.314,0.199c-0.064,0.133-0.096,0.302-0.096,0.508v1.695
			c0,0.167,0.009,0.305,0.027,0.414c0.018,0.109,0.059,0.204,0.123,0.283C203.747,137.54,203.835,137.58,203.946,137.58z"/>
		<path style="fill:#FFFFFF;" d="M207.024,138.357c-0.263,0-0.455-0.097-0.576-0.289c-0.121-0.192-0.182-0.43-0.182-0.711v-3.695
			h1.09v3.473c0,0.144,0.022,0.25,0.066,0.32c0.044,0.07,0.126,0.104,0.246,0.102c0.128,0,0.284-0.065,0.469-0.195v-3.699h1.09
			v4.625h-1.09v-0.434C207.77,138.189,207.399,138.357,207.024,138.357z"/>
		<path style="fill:#FFFFFF;" d="M210.071,138.287v-4.625h1.094v0.453c0.373-0.349,0.749-0.523,1.129-0.523
			c0.263,0,0.455,0.097,0.576,0.289c0.121,0.192,0.182,0.43,0.182,0.711v3.695h-1.094v-3.453c0-0.145-0.021-0.254-0.063-0.324
			c-0.041-0.07-0.123-0.104-0.242-0.102c-0.135,0.003-0.298,0.073-0.488,0.211v3.668H210.071z"/>
		<path style="fill:#FFFFFF;" d="M215.149,138.349c-0.211-0.003-0.39-0.038-0.537-0.105c-0.147-0.067-0.26-0.165-0.34-0.291
			c-0.08-0.126-0.137-0.268-0.172-0.424c-0.035-0.156-0.053-0.339-0.053-0.547v-2.598h-0.457v-0.723h0.457v-1.359h1.098v1.359h0.703
			v0.723h-0.703v2.668c0,0.151,0.033,0.26,0.1,0.326c0.066,0.066,0.172,0.101,0.318,0.104c0.101,0.003,0.212-0.005,0.332-0.023
			v0.836C215.585,138.336,215.337,138.354,215.149,138.349z"/>
	</g>
	<rect x="158.797" y="49.618" style="fill:#FFFFFF;" width="25.871" height="3.105"/>
</g>
<g>
	
		<linearGradient id="SVGID_00000116941937850013161840000007054649238782116224_" gradientUnits="userSpaceOnUse" x1="378.4314" y1="184.0606" x2="445.5195" y2="184.0606">
		<stop  offset="0" style="stop-color:#5761D7"/>
		<stop  offset="0.0726" style="stop-color:#5472D8"/>
		<stop  offset="0.2791" style="stop-color:#4E9CDB"/>
		<stop  offset="0.4801" style="stop-color:#49BDDD"/>
		<stop  offset="0.6715" style="stop-color:#45D5DF"/>
		<stop  offset="0.8493" style="stop-color:#43E3E0"/>
		<stop  offset="1" style="stop-color:#42E8E0"/>
	</linearGradient>
	<path style="opacity:0.8;fill:url(#SVGID_00000116941937850013161840000007054649238782116224_);" d="M443.176,193.284h-62.401
		c-1.294,0-2.344-1.049-2.344-2.343v-13.76c0-1.294,1.049-2.343,2.344-2.343h62.401c1.294,0,2.343,1.049,2.343,2.343v13.76
		C445.52,192.235,444.47,193.284,443.176,193.284z"/>
	<g>
		<path style="fill:#FFFFFF;" d="M391.106,188.711v-8.19h-1.773v-0.64h4.34v0.64h-1.73v8.19H391.106z"/>
		<path style="fill:#FFFFFF;" d="M394.387,188.711v-8.83h2.008c0.784,0,1.346,0.189,1.683,0.567
			c0.338,0.378,0.506,0.933,0.506,1.664c0,1.218-0.41,1.912-1.23,2.082l1.368,4.517h-0.82l-1.294-4.341h-1.385v4.341H394.387z
			 M395.223,183.758h1.124c0.532,0,0.903-0.13,1.113-0.392c0.209-0.261,0.313-0.679,0.313-1.254c0-0.567-0.099-0.978-0.298-1.23
			c-0.199-0.252-0.566-0.378-1.103-0.378h-1.15V183.758z"/>
		<path style="fill:#FFFFFF;" d="M401.385,188.711v-2.935l-1.992-5.895h0.814l1.588,4.905l1.528-4.905h0.814l-1.943,5.895v2.935
			H401.385z"/>
		<path style="fill:#FFFFFF;" d="M407.354,188.711v-8.83h0.82v8.83H407.354z"/>
		<path style="fill:#FFFFFF;" d="M410.689,188.711v-8.19h-1.773v-0.64h4.341v0.64h-1.731v8.19H410.689z"/>
		<path style="fill:#FFFFFF;" d="M416.195,188.711v-8.83h0.612l2.813,6.854v-6.854h0.713v8.83h-0.585l-2.834-6.934v6.934H416.195z"
			/>
		<path style="fill:#FFFFFF;" d="M423.96,188.823c-0.427,0-0.789-0.065-1.089-0.195c-0.301-0.129-0.535-0.319-0.703-0.569
			c-0.169-0.25-0.291-0.534-0.365-0.852c-0.074-0.317-0.111-0.686-0.111-1.105v-3.664c0-0.416,0.038-0.779,0.114-1.092
			c0.076-0.313,0.2-0.589,0.373-0.828c0.172-0.24,0.407-0.422,0.705-0.546c0.299-0.124,0.657-0.186,1.076-0.186
			c0.419,0,0.777,0.063,1.075,0.186c0.299,0.124,0.534,0.307,0.706,0.549c0.172,0.241,0.296,0.518,0.373,0.83
			c0.076,0.313,0.114,0.675,0.114,1.087v3.675c0,0.33-0.022,0.628-0.066,0.895c-0.045,0.267-0.121,0.515-0.23,0.745
			c-0.108,0.231-0.247,0.424-0.418,0.578c-0.17,0.154-0.387,0.275-0.649,0.362S424.301,188.823,423.96,188.823z M423.246,188.021
			c0.191,0.087,0.43,0.13,0.714,0.13c0.284,0,0.521-0.043,0.714-0.13c0.191-0.087,0.338-0.218,0.439-0.392
			c0.102-0.174,0.173-0.367,0.214-0.58c0.04-0.214,0.06-0.469,0.06-0.768v-3.994c0-0.298-0.02-0.553-0.06-0.764
			c-0.041-0.212-0.112-0.402-0.214-0.573c-0.101-0.17-0.247-0.297-0.439-0.381c-0.192-0.083-0.43-0.125-0.714-0.125
			c-0.284,0-0.522,0.042-0.714,0.125c-0.191,0.084-0.338,0.211-0.439,0.381c-0.102,0.171-0.172,0.361-0.213,0.573
			c-0.041,0.211-0.061,0.466-0.061,0.764v3.994c0,0.299,0.021,0.554,0.061,0.768c0.041,0.213,0.111,0.406,0.213,0.58
			C422.908,187.804,423.055,187.935,423.246,188.021z"/>
		<path style="fill:#FFFFFF;" d="M428.699,188.711l-1.502-8.824l0.714-0.006l1.161,7.169l1.337-7.035h0.686l1.358,7.045l1.081-7.179
			h0.703l-1.428,8.83h-0.649l-1.4-7.291l-1.391,7.291H428.699z"/>
	</g>
</g>
<g>
	<polygon style="opacity:0.7;fill:#42E8E0;" points="378.432,399.919 352.447,384.917 378.431,369.915 404.416,384.917 	"/>
	<path style="fill:#42E8E0;" d="M378.432,400.656c-0.127,0-0.255-0.033-0.369-0.099l-25.984-15.002
		c-0.228-0.132-0.368-0.375-0.368-0.639s0.141-0.507,0.368-0.639l25.983-15.002c0.229-0.131,0.51-0.131,0.738,0l25.985,15.002
		c0.228,0.132,0.368,0.375,0.368,0.639s-0.141,0.507-0.368,0.639l-25.984,15.002C378.686,400.623,378.559,400.656,378.432,400.656z
		 M353.922,384.917l24.51,14.15l24.51-14.15l-24.511-14.15L353.922,384.917z"/>
</g>
<g>
	<polygon style="opacity:0.7;fill:#42E8E0;" points="435.882,385.657 422.248,377.786 435.882,369.915 449.515,377.786 	"/>
	<polygon style="opacity:0.5;fill:#42E8E0;" points="435.882,377.786 422.248,369.915 435.882,362.043 449.515,369.915 	"/>
	<polygon style="opacity:0.3;fill:#42E8E0;" points="435.882,369.915 422.248,362.043 435.882,354.172 449.515,362.044 	"/>
	<path style="fill:#42E8E0;" d="M435.882,386.395c-0.127,0-0.255-0.033-0.369-0.099l-13.634-7.871
		c-0.228-0.132-0.368-0.375-0.368-0.639c0-0.264,0.141-0.507,0.368-0.639l13.634-7.871c0.229-0.131,0.51-0.131,0.738,0l13.633,7.871
		c0.228,0.132,0.368,0.375,0.368,0.639c0,0.264-0.141,0.507-0.368,0.639l-13.633,7.871
		C436.137,386.361,436.009,386.395,435.882,386.395z M423.723,377.786l12.159,7.02l12.158-7.02l-12.158-7.02L423.723,377.786z"/>
</g>
<g>
	<polygon style="opacity:0.7;fill:#42E8E0;" points="137.515,337.61 123.882,329.738 137.515,321.867 151.148,329.739 	"/>
	<path style="fill:#42E8E0;" d="M137.515,338.347c-0.127,0-0.254-0.033-0.369-0.099l-13.633-7.871
		c-0.228-0.132-0.369-0.375-0.369-0.639s0.141-0.507,0.369-0.639l13.633-7.871c0.229-0.131,0.509-0.131,0.737,0l13.634,7.871
		c0.228,0.132,0.369,0.375,0.369,0.639s-0.141,0.507-0.369,0.639l-13.633,7.871C137.77,338.314,137.643,338.347,137.515,338.347z
		 M125.356,329.738l12.159,7.02l12.159-7.02l-12.159-7.02L125.356,329.738z"/>
</g>
</svg>
